<?xml version="1.0" encoding="UTF-8"?>
<svg width="37px" height="33px" viewBox="0 0 37 33" version="1.1" xmlns="http://www.w3.org/2000/svg" xmlns:xlink="http://www.w3.org/1999/xlink">
    <!-- Generator: Sketch 52.5 (67469) - http://www.bohemiancoding.com/sketch -->
    <title>PM2.5</title>
    <desc>Created with Sketch.</desc>
    <defs>
        <linearGradient x1="50%" y1="0%" x2="50%" y2="97.9949422%" id="linearGradient-1">
            <stop stop-color="#6ECCFF" offset="0%"></stop>
            <stop stop-color="#195DC7" offset="100%"></stop>
        </linearGradient>
    </defs>
    <g id="Page-1" stroke="none" stroke-width="1" fill="none" fill-rule="evenodd">
        <g id="领导指挥舱" transform="translate(-1535.000000, -298.000000)" fill="url(#linearGradient-1)" fill-rule="nonzero">
            <g id="分组-3" transform="translate(19.000000, 114.000000)">
                <g id="分组-8" transform="translate(1471.000000, 0.000000)">
                    <g id="分组-11">
                        <g id="PM2.5" transform="translate(45.000000, 184.000000)">
                            <path d="M37,28.3030916 C36.9527157,28.3815696 35.8100106,30.2297265 33.2921193,31.5795482 C31.8263046,32.3643282 30.1910543,32.8312723 28.4257721,32.960761 C28.0829606,32.9843044 27.7362087,33 27.3855165,33 C25.5138445,33 23.5160809,32.6429251 21.4237487,31.9326992 C15.485623,29.9118906 12.0062833,30.0413793 10.1385517,30.5043995 C8.4284345,30.9281807 7.83738019,31.6815696 7.83343983,31.6894174 L6.19030884,30.6064209 C6.28487753,30.4651605 7.171459,29.2173603 9.66176784,28.601308 C11.0408946,28.2599287 12.6682641,28.169679 14.4926518,28.3384067 C16.715016,28.5424495 19.2604899,29.1271106 22.058147,30.0766944 C26.0733759,31.4422117 29.5369542,31.3676576 32.3543131,29.856956 C34.3717785,28.7739596 35.3017039,27.3064209 35.3095847,27.2907253 L37,28.3030916 Z M13.3302449,25.811415 C15.6865815,26.6040428 17.9483493,27.0042806 20.0603834,27.0042806 C20.1628328,27.0042806 20.2613419,27.0042806 20.3637913,27.0003567 C22.1487753,26.9689655 23.8313099,26.6472057 25.35623,26.046849 C28.0041534,25.0030916 29.2926518,23.4649227 29.3438765,23.4021403 L27.8189563,22.158264 C27.7756124,22.2092747 23.5476038,27.1730083 13.9607029,23.9554102 C3.34536741,20.388585 0.133972311,25.4307967 0,25.6466112 L1.68647497,26.6629013 C1.68647497,26.6629013 1.68253461,26.6668252 1.67859425,26.674673 C1.70223642,26.635434 2.32087327,25.7093936 4.00734824,25.1208086 C5.63077742,24.551843 8.56634718,24.2104637 13.3302449,25.811415 Z M18.0035144,18.5561237 C18.0035144,16.7472057 19.4772098,15.2796671 21.2937167,15.2796671 C23.1102236,15.2796671 24.5839191,16.7472057 24.5839191,18.5561237 C24.5839191,20.3650416 23.1102236,21.8325803 21.2937167,21.8325803 C19.4772098,21.8325803 18.0035144,20.3650416 18.0035144,18.5561237 Z M19.9736954,18.5561237 C19.9736954,19.2820452 20.5647497,19.8706302 21.2937167,19.8706302 C22.0226837,19.8706302 22.613738,19.2820452 22.613738,18.5561237 C22.613738,17.8302021 22.0226837,17.2416171 21.2937167,17.2416171 C20.5647497,17.2416171 19.9736954,17.834126 19.9736954,18.5561237 Z M15.1979766,7.68692033 C16.6322684,7.68692033 17.7986155,8.84447087 17.7986155,10.2766944 C17.7986155,11.7049941 16.6362087,12.8664685 15.1979766,12.8664685 C13.7636848,12.8664685 12.5973376,11.708918 12.5973376,10.2766944 C12.5973376,8.84447087 13.7597444,7.68692033 15.1979766,7.68692033 Z M15.1979766,9.64887039 C14.8512247,9.64887039 14.5675186,9.9313912 14.5675186,10.2766944 C14.5675186,10.6219976 14.8512247,10.9045184 15.1979766,10.9045184 C15.5447284,10.9045184 15.8284345,10.6219976 15.8284345,10.2766944 C15.8244941,9.9313912 15.5447284,9.64887039 15.1979766,9.64887039 Z M8.73578275,9.06813317 C9.27955272,9.06813317 9.72087327,8.62865636 9.72087327,8.08715815 C9.72087327,7.54565993 9.27955272,7.10618312 8.73578275,7.10618312 C8.19201278,7.10618312 7.75069223,7.54565993 7.75069223,8.08715815 C7.75069223,8.62865636 8.19201278,9.06813317 8.73578275,9.06813317 Z M4.7914803,16.6726516 C4.7914803,15.2639715 5.93812567,14.1221165 7.35271565,14.1221165 C8.76730564,14.1221165 9.91395101,15.2639715 9.91395101,16.6726516 C9.91395101,18.0813317 8.76730564,19.2231867 7.35271565,19.2231867 C5.93812567,19.2231867 4.7914803,18.0813317 4.7914803,16.6726516 Z M6.76166134,16.6726516 C6.76166134,16.9983353 7.0256656,17.2612366 7.35271565,17.2612366 C7.67976571,17.2612366 7.94376997,16.9983353 7.94376997,16.6726516 C7.94376997,16.3469679 7.67976571,16.0840666 7.35271565,16.0840666 C7.0256656,16.0840666 6.76166134,16.3508918 6.76166134,16.6726516 Z M23.1732694,5.14030916 C23.1732694,3.51581451 24.4972311,2.19738407 26.128541,2.19738407 C27.7598509,2.19738407 29.0838126,3.51581451 29.0838126,5.14030916 C29.0838126,6.7648038 27.7598509,8.08323424 26.128541,8.08323424 C24.4972311,8.08323424 23.1732694,6.76872771 23.1732694,5.14030916 Z M25.1434505,5.14030916 C25.1434505,5.68180737 25.584771,6.12128419 26.128541,6.12128419 C26.672311,6.12128419 27.1136315,5.68180737 27.1136315,5.14030916 C27.1136315,4.59881094 26.672311,4.15933413 26.128541,4.15933413 C25.584771,4.15933413 25.1434505,4.60273484 25.1434505,5.14030916 Z M31.5898829,20.2865636 C32.6774228,20.2865636 33.5600639,19.40761 33.5600639,18.3246136 C33.5600639,17.2416171 32.6774228,16.3626635 31.5898829,16.3626635 C30.5023429,16.3626635 29.6197018,17.2416171 29.6197018,18.3246136 C29.6197018,19.40761 30.5023429,20.2865636 31.5898829,20.2865636 Z M13.5036209,3.92390012 C14.5911608,3.92390012 15.4738019,3.04494649 15.4738019,1.96195006 C15.4738019,0.878953627 14.5911608,0 13.5036209,0 C12.4160809,0 11.5334398,0.878953627 11.5334398,1.96195006 C11.5334398,3.04494649 12.4160809,3.92390012 13.5036209,3.92390012 Z M25.7226837,11.6147444 C25.7226837,12.1562426 26.1640043,12.5957194 26.7077742,12.5957194 C27.2515442,12.5957194 27.6928647,12.1562426 27.6928647,11.6147444 C27.6928647,11.0732461 27.2515442,10.6337693 26.7077742,10.6337693 C26.1640043,10.6337693 25.7226837,11.0732461 25.7226837,11.6147444 Z M12.699787,20.6750297 C12.699787,21.2165279 13.1411076,21.6560048 13.6848775,21.6560048 C14.2286475,21.6560048 14.6699681,21.2165279 14.6699681,20.6750297 C14.6699681,20.1335315 14.2286475,19.6940547 13.6848775,19.6940547 C13.1411076,19.6940547 12.699787,20.1335315 12.699787,20.6750297 Z" id="形状"></path>
                        </g>
                    </g>
                </g>
            </g>
        </g>
    </g>
</svg>