<?xml version="1.0" standalone="no"?>
<!DOCTYPE svg PUBLIC "-//W3C//DTD SVG 1.1//EN" "http://www.w3.org/Graphics/SVG/1.1/DTD/svg11.dtd" >
<!--
2013-9-30: Created.
-->
<svg>
<metadata>
Created by iconfont
</metadata>
<defs>

<font id="iconfont" horiz-adv-x="1024" >
  <font-face
    font-family="iconfont"
    font-weight="500"
    font-stretch="normal"
    units-per-em="1024"
    ascent="896"
    descent="-128"
  />
    <missing-glyph />
    
    <glyph glyph-name="icongaojing" unicode="&#60279;" d="M585.142857 728.795429l334.336-668.745143H250.88zM1158.802286 50.176L655.36 858.843429a84.845714 84.845714 0 0 1-140.288 0L11.702857 50.176c-32.914286-57.782857 8.265143-123.830857 66.048-123.830857h998.546286c74.24 0 115.492571 66.048 82.505143 123.830857z m-569.417143 24.722286c-24.722286 0-41.252571 16.530286-41.252572 41.252571 0 24.795429 16.530286 41.252571 41.252572 41.252572 24.722286 0 41.252571-16.457143 41.252571-41.252572 0-24.722286-16.530286-41.252571-41.252571-41.252571z m41.252571 189.805714c0-24.722286-16.530286-41.252571-41.252571-41.252571-24.722286 0-41.252571 16.530286-41.252572 41.252571V512.292571c0 24.722286 16.530286 41.252571 41.252572 41.252572 24.722286 0 41.252571-16.530286 41.252571-41.252572v-247.588571z"  horiz-adv-x="1170" />

    
    <glyph glyph-name="iconhuanjingzhiliang" unicode="&#60280;" d="M39.393882-115.832471A39.393882 39.393882 0 0 0 0-76.438588c0 134.927059 39.454118 194.198588 117.278118 318.825412a328.884706 328.884706 0 0 0-44.93553 91.858823c-28.912941 94.268235-21.985882 189.259294-7.228235 241.965177 22.106353 79.329882 59.632941 140.769882 114.748235 187.753411 50.778353 43.369412 116.916706 74.330353 202.270118 94.750118C526.938353 893.349647 719.691294 896 976.293647 896h68.065882c11.444706 0 22.287059-4.939294 29.756236-13.552941l0.180706-0.180706 0.361411-0.421647a39.333647 39.333647 0 0 0 8.613647-32.105412c-34.334118-198.475294-87.943529-361.652706-159.322353-484.954353-61.44-106.134588-136.734118-184.32-223.894588-232.508235a457.426824 457.426824 0 0 0-223.894588-57.344 538.202353 538.202353 0 0 0-199.499294 39.152941 349.003294 349.003294 0 0 0-45.778824 22.889412 39.454118 39.454118 0 0 0 20.178824 73.246117c7.047529 0 13.974588-1.927529 20.058353-5.541647 11.565176-6.866824 23.431529-12.769882 35.297882-17.648941a457.968941 457.968941 0 0 1 168.96-33.551059 380.566588 380.566588 0 0 1 186.548706 47.706353c160.466824 88.847059 273.227294 295.996235 335.329882 615.966118h-17.167058c-517.300706 0-769.084235-11.143529-839.077647-262.204235-9.577412-34.153412-18.853647-114.326588 6.686117-197.752471 4.638118-15.119059 10.842353-29.997176 18.552471-44.333176 25.720471 33.611294 53.669647 65.656471 83.425882 95.35247 66.258824 66.258824 141.552941 122.458353 217.810824 162.454588 75.776 39.755294 147.275294 60.717176 206.727529 60.717177a39.393882 39.393882 0 0 0 0-78.727529c-46.08 0-106.556235-18.371765-170.224941-51.681883-69.150118-36.201412-137.878588-87.521882-198.776471-148.419765-84.570353-84.510118-226.484706-189.921882-226.484706-428.995764a39.393882 39.393882 0 0 0-39.333647-39.393883z"  horiz-adv-x="1084" />

    
    <glyph glyph-name="iconchanyefazhan" unicode="&#60281;" d="M1280 720.759467v6.826666h-6.826667l1.911467-1.911466c1.979733-1.501867 3.413333-2.935467 4.9152-4.9152zM61.508267 330.752l383.3856 277.367467 314.299733-301.056 512.273067 457.250133c0.750933 0.682667 1.501867 1.6384 2.321066 2.594133l0.887467-106.0864a38.365867 38.365867 0 0 1 38.2976-37.956266h0.341333a38.2976 38.2976 0 0 1 37.956267 38.570666L1349.495467 895.863467l-251.221334-0.341334a38.2976 38.2976 0 0 1 0-76.5952l119.534934 0.136534-0.136534-0.136534-459.229866-405.2992-303.581867 293.888-438.272-314.709333a38.229333 38.229333 0 1 1 44.919467-62.122667z m1216.512 488.2432v-6.826667a23.1424 23.1424 0 0 1-4.9152 4.846934l-1.911467 1.979733h6.826667z m55.978666-842.683733h-234.018133V480.597333a38.2976 38.2976 0 0 1-76.5952 0v-504.354133h-227.396267v224.6656a38.2976 38.2976 0 0 1-76.663466 0v-224.597333h-212.992l0.2048 2.2528V441.480533a38.2976 38.2976 0 0 1-76.663467 0v-462.848c0-0.8192 0-1.570133 0.2048-2.389333H215.2448V299.895467a38.2976 38.2976 0 0 1-76.663467 0v-323.584H30.583467c-16.861867 0-30.5152-17.2032-30.5152-38.365867 0-21.162667 13.653333-38.229333 30.5152-38.229333H1333.998933c16.861867 0 30.5152 17.066667 30.5152 38.229333-0.2048 21.162667-13.789867 38.2976-30.5152 38.2976z"  horiz-adv-x="1365" />

    
    <glyph glyph-name="iconshuangzhaoshuangyin" unicode="&#60282;" d="M883.169882-25.057882c-5.782588 188.958118-135.168 347.678118-309.248 398.45647 3.011765 1.505882 11.625412 6.686118 12.950589 7.348706 9.035294 5.059765 30.117647 19.395765 32.165647 20.901647 7.529412 5.782588 27.708235 23.913412 30.599529 26.864941 5.541647 5.601882 34.575059 41.743059 37.345882 46.260706 5.782588 9.035294 10.842353 18.492235 15.480471 28.129883 0.602353 1.385412 1.445647 2.529882 2.048 3.855058a270.095059 270.095059 0 0 1 25.178353 113.844706A275.215059 275.215059 0 0 1 454.716235 895.518118h-0.361411a275.275294 275.275294 0 0 1-274.974118-274.913883 275.094588 275.094588 0 0 1 155.648-247.265882C161.069176 322.56 31.683765 163.84 25.901176-24.997647c-0.060235-0.903529-0.602353-1.686588-0.602352-2.529882 0-0.602353 0.301176-0.963765 0.361411-1.445647a37.345882 37.345882 0 0 1 3.734589-14.878118 37.345882 37.345882 0 0 1 67.764705 0.722823 37.888 37.888 0 0 1 2.650353 11.264c0.240941 1.505882 0.903529 2.770824 0.90353 4.336942 0 1.505882-0.722824 2.891294-0.90353 4.457411 0 5.601882 0.120471 11.083294-0.060235 16.685177-0.180706 3.312941 0.662588 5.963294 1.385412 8.673882h-0.963765a356.954353 356.954353 0 0 0 138.11953 242.56753c1.385412 0.783059 2.891294 1.325176 4.21647 2.228705a18.853647 18.853647 0 0 1 0.722824-0.662588 353.581176 353.581176 0 0 0 152.997647 66.861177l2.951529 0.481882c8.252235 1.325176 16.564706 2.469647 25.057882 3.192471 7.408941 0.602353 14.938353 0.903529 22.40753 1.084235 2.650353 0.060235 5.180235 0.361412 7.890823 0.361412 11.806118 0 23.491765-0.843294 34.936471-2.048l0.060235 0.301176a357.918118 357.918118 0 0 0 319.427765-314.428235h-0.963765c0.722824-2.650353 1.566118-5.300706 1.385412-8.613647-0.180706-5.601882 0-11.083294 0-16.745412-0.301176-1.566118-0.963765-2.891294-0.963765-4.457412 0-1.566118 0.602353-2.831059 0.843294-4.276706 0.481882-3.975529 1.144471-7.830588 2.710589-11.264a37.466353 37.466353 0 0 1 34.153411-22.106353 37.466353 37.466353 0 0 1 37.345883 36.261648c0 0.481882 0.240941 0.843294 0.240941 1.385411 0 0.903529-0.481882 1.686588-0.542118 2.590118M252.385882 620.664471a202.631529 202.631529 0 0 0 202.209883 202.330353 202.571294 202.571294 0 0 0 202.209882-202.390589 202.631529 202.631529 0 0 0-202.209882-202.390588 202.571294 202.571294 0 0 0-202.209883 202.390588M1227.776-34.032941c-5.782588 188.897882-135.228235 347.557647-309.127529 398.396235a274.913882 274.913882 0 0 1 155.587764 247.265882A275.275294 275.275294 0 0 1 800.286118 886.362353V885.76a35.960471 35.960471 0 0 1-33.490824-35.719529c0-18.974118 14.817882-34.153412 33.490824-35.659295v-0.361411l2.650353-0.180706h0.180705a202.571294 202.571294 0 0 0 198.234353-202.149647c0-102.881882-79.691294-198.354824-179.501176-212.630588v-0.301177a45.658353 45.658353 0 0 1-23.913412-11.203765 45.718588 45.718588 0 0 1-14.697412-33.430588c0-14.215529 6.866824-26.503529 16.926118-34.93647 7.890824-6.625882 17.829647-11.083294 28.912941-11.14353l-0.180706-0.060235h0.602353c8.432941-0.783059 16.745412-1.867294 24.997647-3.252706l3.011765-0.361412a353.641412 353.641412 0 0 0 152.937412-66.981647 17.950118 17.950118 0 0 1 0.722823 0.722824c1.325176-0.963765 2.831059-1.505882 4.216471-2.228706a357.074824 357.074824 0 0 0 138.119529-242.56753h-0.903529c0.602353-2.770824 1.505882-5.421176 1.385412-8.673882-0.301176-5.601882-0.120471-11.143529-0.120471-16.745412-0.240941-1.566118-0.903529-2.891294-0.903529-4.517647 0-1.505882 0.602353-2.831059 0.903529-4.21647 0.421647-3.975529 1.024-7.830588 2.590118-11.264a37.647059 37.647059 0 0 1 34.213647-22.166589 37.466353 37.466353 0 0 1 33.611294 21.443765 37.767529 37.767529 0 0 1 3.734588 14.878118c0 0.421647 0.301176 0.903529 0.301177 1.325176 0 0.963765-0.481882 1.686588-0.602353 2.650353M831.247059 305.633882h0.301176l-0.963764 0.120471z"  horiz-adv-x="1264" />

    
    <glyph glyph-name="iconwenhuajiaoyu" unicode="&#60283;" d="M1132.096 484.288l-66.944-26.304v-310.528c0-45.568-28.736-86.208-71.68-101.44l-313.408-111.36c-23.36-8.32-48.896-8.32-72.32 0L294.4 46.016a107.712 107.712 0 0 0-71.68 101.504V454.848l-16.384 6.4a33.472 33.472 0 0 0 24.448 62.336l402.304-158.208c5.12-2.368 8.704-2.368 11.776-0.896l561.984 221.056a11.52 11.52 0 0 1 0 20.224l-559.936 220.16c-5.12 2.368-8.704 2.368-11.84 0.896-0.384-0.192-187.712-73.92-561.92-221.056a11.52 11.52 0 0 1 0-20.224l34.56-13.568a33.472 33.472 0 0 0-24.448-62.336L47.36 523.84C-14.72 552.96-14.72 638.336 45.248 666.624L607.744 887.872c20.48 9.28 44.032 9.28 64.576 0L1232.64 667.52c62.016-29.184 62.016-114.56 2.048-142.848l-36.928-14.528a33.408 33.408 0 0 0 1.152-8.96v-332.672a33.472 33.472 0 0 0-66.88 0V484.288z m-133.888-52.672l-325.888-128.192c-20.544-9.28-44.096-9.28-64.64 0l-318.08 125.12v-281.088c0-17.216 10.88-32.64 27.2-38.4l313.408-111.36c8.896-3.2 18.56-3.2 27.456 0l313.408 111.36a40.768 40.768 0 0 1 27.136 38.4v284.16z"  horiz-adv-x="1280" />

    
    <glyph glyph-name="iconxiangcunzhenxing" unicode="&#60284;" d="M977.692444 482.076444a7.964444 7.964444 0 0 0 7.850667 7.850667h96.426667c25.315556 0 46.705778 16.497778 53.248 40.789333a54.499556 54.499556 0 0 1-25.713778 61.895112L596.309333 888.604444a55.694222 55.694222 0 0 1-55.068444 0L28.103111 592.611556a54.499556 54.499556 0 0 1-25.6-61.895112c6.485333-24.462222 27.875556-40.789333 53.134222-40.789333h96.369778a7.964444 7.964444 0 0 0 7.850667-7.850667v-501.361777c0-3.640889 0.853333-7.111111 2.446222-10.183111H50.631111a23.608889 23.608889 0 0 1 0-47.217778h1052.273778a23.608889 23.608889 0 0 1 0 47.217778h-127.544889a23.552 23.552 0 0 1 2.446222 10.24V482.019556h-0.113778z m-558.592-511.544888H204.686222a23.552 23.552 0 0 1 2.446222 10.24V482.019556a55.011556 55.011556 0 0 1-0.682666 7.850666H419.271111v-519.395555h-0.227555z m263.224889 0H466.318222v519.395555h216.007111v-519.395555z m47.274667 0v519.395555h201.728a55.011556 55.011556 0 0 1-0.682667-7.850667v-501.361777c0-3.640889 0.853333-7.111111 2.446223-10.183111h-203.491556zM152.007111 537.144889H55.637333c-5.006222 0-6.826667 3.128889-7.623111 5.688889-0.682667 2.730667-0.568889 6.428444 3.697778 8.874666L564.906667 847.644444a8.135111 8.135111 0 0 0 7.850666 0l513.137778-295.822222c4.266667-2.503111 4.380444-6.200889 3.640889-8.874666-0.739556-2.730667-2.56-5.802667-7.623111-5.802667H152.007111z"  horiz-adv-x="1137" />

    
    <glyph glyph-name="iconxiangmu" unicode="&#60285;" d="M41.502118 569.223529l-0.180706-0.301176 428.754823-247.567059a28.250353 28.250353 0 0 1 28.55153 0.180706l425.502117 245.639529a28.310588 28.310588 0 0 1-0.240941 49.03153L499.952941 861.967059a28.190118 28.190118 0 0 1-29.756235-0.843294L45.176471 615.664941a28.190118 28.190118 0 0 1-3.614118-46.381176zM485.737412 805.044706l367.856941-213.353412-369.362824-213.232941L115.651765 591.209412l370.145882 213.714823z m438.151529-396.047059l-79.811765 46.260706-56.380235-32.527059 65.957647-38.249412-369.423059-213.232941L115.651765 384l66.078117 38.128941-56.380235 32.527059-80.173176-46.260706a28.190118 28.190118 0 0 1-3.493647-46.501647l-0.180706-0.301176 428.634353-247.506824a28.250353 28.250353 0 0 1 28.551529 0.180706L924.129882 359.905882a28.310588 28.310588 0 0 1-0.240941 49.03153z m0-207.209412l-79.510588 46.019765-56.380235-32.527059 65.65647-38.068706-369.423059-213.232941-368.64 212.811294 65.716706 37.948236-56.380235 32.527058-79.811765-46.08a28.190118 28.190118 0 0 1-3.614117-46.381176l-0.120471-0.361412 428.694588-247.567059a28.250353 28.250353 0 0 1 28.55153 0.180706l425.502117 245.699765a28.310588 28.310588 0 0 1-0.240941 48.971294z"  horiz-adv-x="1024" />

    
    <glyph glyph-name="iconxiangqing" unicode="&#60286;" d="M125.5424-24.917333l410.897067 410.897066-410.965334 410.897067a37.888 37.888 0 1 0 53.725867 53.6576l434.176-434.176a37.751467 37.751467 0 0 0 10.8544-30.378667 37.751467 37.751467 0 0 0-10.922667-30.378666l-434.176-434.176a37.888 37.888 0 1 0-53.589333 53.6576zM422.229333-28.330667l410.897067 410.8288-410.965333 410.965334a37.888 37.888 0 1 0 53.725866 53.589333l434.176-434.176a37.751467 37.751467 0 0 0 10.922667-30.378667 37.751467 37.751467 0 0 0-10.922667-30.3104l-434.176-434.176a37.888 37.888 0 1 0-53.6576 53.589334z"  horiz-adv-x="1024" />

    
    <glyph glyph-name="iconzhongdianxiangmu" unicode="&#60288;" d="M489.755826 863.799432c20.7722 42.93409 54.856163 42.93409 75.628364 0L665.588114 657.320834c20.7722-42.93409 75.847788-83.673934 122.365815-90.549241l223.95943-33.133122c46.518026-6.875306 57.05041-39.862145 23.405296-73.214693l-162.081677-160.691987c-33.645113-33.425689-54.70988-99.326226-46.810593-146.502527l38.253031-226.958233c8.045571-47.1763-19.528794-67.509652-61.146336-45.201479l-200.40785 107.152373c-41.544401 22.235032-109.712327 22.235032-151.256728 0l-200.40785-107.152373c-41.544401-22.308173-69.118766-1.974822-61.146336 45.201479l38.253031 226.958233c7.972429 47.1763-13.092338 113.076838-46.810593 146.502527L19.748219 460.423778c-33.645113 33.352547-23.185872 66.339387 23.332155 73.214693L267.039803 566.844735c46.591168 6.875306 101.666756 47.61515 122.438956 90.54924L489.682684 863.799432z"  horiz-adv-x="1097" />

    
    <glyph glyph-name="iconzerenren" unicode="&#60289;" d="M494.230588 342.799059a261.782588 261.782588 0 0 0-261.541647 261.481412A261.782588 261.782588 0 0 0 494.230588 865.701647a261.842824 261.842824 0 0 0 261.481412-261.421176 261.782588 261.782588 0 0 0-261.481412-261.481412z m0 457.185882a196.005647 196.005647 0 0 1-195.764706-195.764706 195.945412 195.945412 0 0 1 195.764706-195.70447 195.945412 195.945412 0 0 1 195.764706 195.764706 195.885176 195.885176 0 0 1-195.764706 195.70447z m13.733647-897.746823a32.948706 32.948706 0 0 0-25.901176 12.589176L404.781176 13.552941a33.189647 33.189647 0 0 0-6.625882 25.298824l32.527059 209.679059a32.888471 32.888471 0 0 0 32.527059 27.828705h81.317647c16.263529 0 30.117647-11.866353 32.527059-27.888941l32.527058-209.618823a32.888471 32.888471 0 0 0-5.541647-23.853177l-69.150117-98.785882a33.008941 33.008941 0 0 0-26.021647-14.034824h-0.90353z m-42.646588 140.649411l41.200941-52.585411 36.141177 51.561411-26.202353 168.719059h-25.057883l-26.081882-167.695059zM952.32-88.907294a32.888471 32.888471 0 0 0-32.768 36.261647 427.489882 427.489882 0 0 1-287.563294 448.572235 32.768 32.768 0 0 0-3.97553 60.536471 32.768 32.768 0 0 0 25.118118 1.566117 493.146353 493.146353 0 0 0 331.776-517.541647 32.828235 32.828235 0 0 0-32.647529-29.394823z m-916.118588 0a32.888471 32.888471 0 0 0-32.64753 29.455059 493.688471 493.688471 0 0 0 331.535059 517.481411 32.888471 32.888471 0 0 0 21.142588-62.162823 427.429647 427.429647 0 0 1-287.322353-448.451765 32.888471 32.888471 0 0 0-32.707764-36.321882z"  horiz-adv-x="1024" />

    
    <glyph glyph-name="zhengwufuwu" unicode="&#60287;" d="M590.495939-115.809524c-265.167238-43.398095-516.242286 137.45981-559.640381 402.67581a483.913143 483.913143 0 0 0 130.681905 417.304381c7.801905 8.289524 20.967619 8.289524 29.257143 0.487619 8.289524-7.801905 8.289524-20.967619 0.487619-29.257143a442.904381 442.904381 0 0 1-119.954286-382.19581c39.497143-242.834286 269.55581-408.088381 512.341333-368.591238 242.834286 39.497143 408.039619 269.653333 368.542477 512.390095-39.497143 243.321905-269.06819 408.576-512.341334 368.591239a458.361905 458.361905 0 0 1-126.780952-40.472381c-10.24-5.36381-22.430476-0.975238-27.794286 9.264762a20.577524 20.577524 0 0 0 9.264762 27.794285h0.487619c43.690667 21.601524 90.35581 36.571429 138.48381 44.373334 265.216 43.398095 516.242286-137.020952 559.640381-402.724572 43.398095-265.216-137.508571-516.291048-402.67581-559.640381zM410.174415 401.554286l-25.697524-25.014857 96.109715-93.720381 143.945143 140.04419-25.746286 25.014857-118.198857-114.834285-70.412191 68.510476zM726.834225 586.849524s-70.119619 2.29181-213.674667 81.188571l-8.679619 4.876191-8.679619-4.876191C352.294034 589.141333 282.515749 586.849524 282.515749 586.849524h-18.041905v-234.691048c0-104.886857 60.708571-157.793524 128.487619-207.091809l111.518476-72.216381 111.518476 72.167619c67.779048 49.347048 128.536381 102.253714 128.536381 207.140571V586.800762h-17.700571z m-18.041905-235.812572c0-79.969524-39.984762-124.245333-112.835048-177.298285l-90.404571-59.440762-90.35581 59.440762c-74.654476 52.857905-114.590476 97.133714-114.590476 177.103238V552.71619c29.793524 4.87619 97.572571 21.650286 203.873524 79.043048 106.300952-57.392762 174.08-74.215619 203.922286-79.091809l0.341333-201.630477z"  horiz-adv-x="1024" />

    
    <glyph glyph-name="icon-diqu" unicode="&#60302;" d="M496.12222 896A367.890605 367.890605 0 0 1 148.361961 407.66851v-0.597086l0.597086-1.108875c6.22676-17.571404 13.73299-34.631019 22.348096-50.922952l0.170596-0.42649 0.170597-0.341193c3.497221-6.397356 7.165038-12.794712 11.088749-19.021471l0.341193-0.597086 0.170596-0.341193L426.774883-87.74272a79.839 79.839 0 0 1 138.182885 0l244.80548 423.334355 1.108875 1.705962 7.847423 13.647692a7.420933 7.420933 0 0 1 0.852981 1.705962l0.255894 0.511788 0.170596 0.426491a385.547307 385.547307 0 0 1 23.286375 52.543615l0.511789 1.108875v0.42649A368.061201 368.061201 0 0 1 496.12222 896z m0-531.407018a174.690461 174.690461 0 1 0 0 349.295624 174.690461 174.690461 0 0 0 0-349.380923z"  horiz-adv-x="1024" />

    
    <glyph glyph-name="icon-sousuo" unicode="&#60304;" d="M979.784707-57.797563l-281.201141 289.515026a395.421118 395.421118 0 0 1 71.819168 114.475789 403.415238 403.415238 0 0 1 30.185794 154.062667 403.543144 403.543144 0 0 1-30.185794 154.062668 395.229259 395.229259 0 0 1-82.371406 125.731509A382.566574 382.566574 0 0 1 565.881185 864.851713 372.398055 372.398055 0 0 1 416.231271 895.996802c-51.801893 0-102.132869-10.488285-149.522008-31.145089a382.502622 382.502622 0 0 1-122.150143-84.801617A395.293212 395.293212 0 0 1 62.187715 654.318587 403.543144 403.543144 0 0 1 32.00192 500.128013c0-53.400717 10.16852-105.20261 30.185795-153.998714a395.229259 395.229259 0 0 1 82.371405-125.795462 382.502622 382.502622 0 0 1 122.150143-84.801618 372.334102 372.334102 0 0 1 149.585961-31.145089c51.801893 0 102.196821 10.488285 149.649914 31.145089 25.9649 11.319673 50.522834 25.453276 73.290086 42.20895l284.590648-293.160344a38.819443 38.819443 0 0 1 55.894882 0 41.56942 41.56942 0 0 1 0 57.557659z m-563.489483 243.660757c-168.324177 0-305.311405 141.016265-305.311405 314.392725 0 173.312507 136.987229 314.392725 305.311405 314.392725s305.311405-141.080218 305.311406-314.392725c0-173.37646-136.987229-314.392725-305.311406-314.392725z"  horiz-adv-x="1024" />

    
    <glyph glyph-name="icon-yiwen" unicode="&#60306;" d="M492.032 329.728c0 26.0096 4.5568 48.5376 15.0528 66.816 9.8304 19.6608 38.4 48.5376 85.1456 87.1936l12.8 13.312c13.568 16.2304 21.0944 33.1264 21.0944 51.3536 0 24.6784-7.5264 43.6224-21.8624 57.7024-15.0528 14.08-36.864 21.0944-64 21.0944-33.9456 0-58.7776-9.8304-73.8304-30.208-13.4656-16.7424-20.224-40.3456-20.3776-70.8608a35.328 35.328 0 0 0 0.2048-4.096c0-20.5824-17.7152-37.2224-39.68-37.2224-21.9136 0-39.6288 16.64-39.6288 37.1712a35.328 35.328 0 0 0 0.1536 3.2768c-0.1536 51.3024 15.6672 91.392 47.3088 120.9344 31.6416 30.208 75.3152 45.0048 131.072 45.0048 48.2304 0 87.3984-11.9808 117.5552-37.2736 30.208-24.576 45.2096-58.368 45.2096-100.5568 0-34.4576-9.728-63.2832-28.6208-85.8112-6.8096-7.68-27.8528-26.0096-63.2832-54.8352a118.6816 118.6816 0 0 1-31.6416-36.608c-8.192-14.1312-12.3392-30.1568-12.0832-46.3872v-11.9808c-1.024-20.1216-18.688-36.1472-40.3456-36.1472-22.272 0-40.3456 16.896-40.3456 37.8368 0 0.7168 0 1.4848 0.1024 2.2016v8.0384zM537.6-128c-282.7776 0-512 229.2224-512 512s229.2224 512 512 512 512-229.2224 512-512-229.2224-512-512-512z m0 68.2496a443.7504 443.7504 0 1 1 0 887.5008 443.7504 443.7504 0 0 1 0-887.5008z m-0.256 273.1008a32.768 32.768 0 0 0 34.4064-33.8944 34.4064 34.4064 0 0 0-10.24-24.832 34.304 34.304 0 0 0-24.1664-9.5744 33.6384 33.6384 0 0 0-33.8944 34.3552c0 10.0352 3.2768 18.176 9.728 24.3712a32.4608 32.4608 0 0 0 24.1664 9.5744z"  horiz-adv-x="1075" />

    
    <glyph glyph-name="-lingdao" unicode="&#60315;" d="M1020.57925 758.301741a38.911433 38.911433 0 0 1-28.159589 22.954332L445.22764 895.131746a40.276746 40.276746 0 0 1-40.618074-15.359776 36.820796 36.820796 0 0 1-0.810655-42.06872l225.276715-337.445745-51.327251-72.532276c-28.074257 19.41305-78.676186 27.476933-158.589688 38.61277-48.511293 6.655903-103.294494 14.378457-125.01151 24.746306L204.164489 533.750349a40.959403 40.959403 0 0 1-31.572873 1.40798 38.783434 38.783434 0 0 1-22.442339-21.46102L3.292752 153.809224c-7.466558-18.346399 0.853321-39.082097 19.114388-47.828636l470.137144-223.740737c0.383994-0.127998 1.023985-0.511993 1.151983-0.511993a98.985223 98.985223 0 0 1 42.751376-9.727858c32.25553 0 63.828403 15.786436 83.881444 44.159356l0.639991 0.895987c24.106315 30.42089 107.091772 135.806019 160.850987 213.756883 23.466324 29.01291 33.535511 68.564333 27.092938 105.897122a43.860694 43.860694 0 0 1-1.023985 4.437269 119.763587 119.763587 0 0 1-61.225774 73.044268l-14.677119 6.954565 284.667849 401.700808a36.906128 36.906128 0 0 1 3.925276 35.455483zM207.791103 447.607606l44.671349-21.333023-118.099611-289.147783-44.671349 21.333022 118.099611 289.147784z m511.267211-271.100047a29.183574 29.183574 0 0 1-1.83464-2.389298l-0.767989-1.151983c-2.773293-3.88261-5.546586-7.935884-8.405211-12.074491l-54.655203 27.348934a40.66074 40.66074 0 0 1-39.338093-1.663975 37.546119 37.546119 0 0 1-18.133069-33.620843 37.844781 37.844781 0 0 1 21.162358-31.999534l45.652668-22.826333c-10.410515-13.994463-20.906362-27.732929-30.975548-40.959403l-43.647364 26.068953a40.618074 40.618074 0 0 1-39.252761 1.279981 37.716783 37.716783 0 0 1-20.778363-32.127531 37.503453 37.503453 0 0 1 18.474397-33.364847l38.015446-22.826334c-11.263836-14.421123-20.309037-25.898289-26.068954-33.194182l-1.450645-1.919972-1.962638-2.645295c-5.50392-7.807886-15.359776-14.250459-26.32495-9.087867l-18.645061-33.279515 17.834407 33.663509-0.383995 0.127998-322.427298 153.59776 122.707544 300.070291c24.618308-4.650599 52.009908-8.447877 80.212164-12.373153 39.423425-5.418588 104.318479-14.506455 121.854223-23.807653 24.148981-40.532742 52.564567-58.836475 55.849852-60.841779 1.194649-0.767989 2.474631-1.407979 3.66928-2.005304l121.896889-57.940489a42.666044 42.666044 0 0 0 20.437035-24.490309 61.439104 61.439104 0 0 0-12.714481-45.567336z m-58.196485 178.600062l-29.354238 13.994463 77.310872 109.182408a36.436802 36.436802 0 0 1 0.554659 41.770057l-188.071924 281.766558 397.47687-82.772126-257.916239-363.94136z"  horiz-adv-x="1024" />

    
    <glyph glyph-name="-chanye" unicode="&#60316;" d="M1045.416642 61.753381H506.228179v20.209463c0 56.15536-43.652439 101.747908-97.436556 101.747908H305.049714c-53.784117 0-97.436556-45.592548-97.436556-101.747908v-20.209463H32.464482A33.197411 33.197411 0 0 1 0.021558 27.801484c0-18.646598 14.550813-33.844113 32.442924-33.844113h175.148676v-20.209463c0-56.15536 43.652439-101.747908 97.436556-101.747908h103.741909c53.784117 0 97.436556 45.592548 97.436556 101.747908v20.209463h539.188463A33.197411 33.197411 0 0 1 1077.859566 27.801484a33.197411 33.197411 0 0 1-32.442924 33.898006zM404.210811-13.210252c0-14.17357-7.760434-25.706437-17.245408-25.706437H331.618421c-9.538866 0-17.245408 11.532867-17.245408 25.706437v82.185148c0 14.17357 7.706542 25.652545 17.245408 25.652545h55.239198c9.538866 0 17.2993-11.478975 17.2993-25.652545v-82.185148zM1045.416642 774.042629H506.228179v20.209463C506.228179 850.407452 462.575739 896 408.791623 896H305.049714c-53.784117 0-97.436556-45.592548-97.436556-101.747908v-20.209463H32.464482A33.197411 33.197411 0 0 1 0.021558 740.252408c0-18.700489 14.550813-33.898005 32.442924-33.898006h175.148676v-20.209462c0-56.15536 43.652439-101.747908 97.436556-101.747908h103.741909c53.784117 0 97.436556 45.592548 97.436556 101.747908V706.30051h539.188463A33.197411 33.197411 0 0 1 1077.859566 740.252408a33.197411 33.197411 0 0 1-32.442924 33.844113zM404.210811 699.132888c0-14.227462-7.760434-25.706437-17.245408-25.706437H331.618421c-9.538866 0-17.245408 11.478975-17.245408 25.652545V781.264144c0 14.17357 7.706542 25.706437 17.245408 25.706436h55.239198c9.538866 0 17.2993-11.532867 17.2993-25.706436v-82.185148zM1045.416642 417.871059h-164.909215v20.263355c0 56.101468-43.652439 101.694016-97.436556 101.694016h-103.688016c-53.784117 0-97.436556-45.592548-97.436556-101.694016v-20.263355H32.464482A33.197411 33.197411 0 0 1 0.021558 384.026946c0-18.646598 14.550813-33.844113 32.442924-33.844114h549.481817v-20.263354c0-56.101468 43.652439-101.694016 97.436556-101.694016h103.688016c53.784117 0 97.436556 45.592548 97.436556 101.694016v20.263354h164.909215A33.197411 33.197411 0 0 1 1077.859566 384.026946a33.197411 33.197411 0 0 1-32.442924 33.844113z m-268.435556-74.909741c0-14.17357-7.760434-25.706437-17.2993-25.706437h-55.239198c-9.538866 0-17.2993 11.532867-17.2993 25.706437V425.092574c0 14.17357 7.760434 25.706437 17.245408 25.706437h55.29309c9.538866 0 17.245408-11.532867 17.245408-25.706437v-82.131256z"  horiz-adv-x="1077" />

    
    <glyph glyph-name="-huanjing" unicode="&#60317;" d="M39.181474-110.214737A39.181474 39.181474 0 0 0 0-71.141053c0 134.197895 39.235368 193.158737 116.628211 317.062737a327.087158 327.087158 0 0 0-44.678737 91.351579C43.223579 431.104 50.122105 525.581474 64.727579 577.967158c21.989053 78.901895 59.338105 140.018526 114.095158 186.745263 50.499368 43.115789 116.358737 73.889684 201.242947 94.208C523.964632 893.359158 715.722105 896 970.913684 896h67.69179c11.317895 0 22.096842-4.904421 29.534315-13.473684l0.215579-0.215579 0.323369-0.431158c7.437474-8.838737 10.617263-20.48 8.623158-31.85179-34.169263-197.416421-87.471158-359.693474-158.450527-482.357894-61.116632-105.472-136.030316-183.242105-222.585263-231.208421a454.871579 454.871579 0 0 0-222.746947-56.966737 535.174737 535.174737 0 0 0-198.386526 38.965895 347.082105 347.082105 0 0 0-45.487158 22.743579 39.235368 39.235368 0 0 0 19.994947 72.757894c7.006316 0 14.012632-1.886316 19.994947-5.443368 11.479579-6.844632 23.282526-12.719158 35.085474-17.569684 30.450526-12.449684 92.698947-33.414737 168.04379-33.414737a378.448842 378.448842 0 0 1 185.505684 47.481263c159.582316 88.333474 271.737263 294.373053 333.500631 612.621474h-17.084631c-514.425263 0-764.820211-11.102316-834.506105-260.850527-9.485474-33.953684-18.701474-113.664 6.736842-196.608 4.581053-15.090526 10.778947-29.803789 18.432-44.085894 25.546105 33.414737 53.355789 65.212632 82.997894 94.800842 65.805474 65.913263 140.773053 121.802105 216.602948 161.522526 75.344842 39.558737 146.432 60.416 205.554526 60.416a39.181474 39.181474 0 0 0 0-78.309053c-45.810526 0-105.957053-18.270316-169.337263-51.415579-68.715789-36.001684-137.054316-86.986105-197.578105-147.509894-84.129684-84.075789-225.28-188.901053-225.28-426.684632a39.181474 39.181474 0 0 0-39.127579-39.181474z"  horiz-adv-x="1078" />

    
    <glyph glyph-name="-wenhua" unicode="&#60318;" d="M1332.4288 646.144l-2.048 0.8192L703.6928 887.739733l-19.592533 7.304534L682.666667 892.245333h-0.546134L680.686933 895.112533 35.0208 647.031467l-2.048-0.750934-23.893333-10.0352 3.072-6.144a53.111467 53.111467 0 0 1 0-66.082133l-3.072-6.144 23.893333-9.966933 1.2288-0.477867 39.389867-15.018667-33.928534-257.024c-23.893333-15.086933-38.843733-41.642667-38.843733-70.8608 0-46.148267 37.205333-83.7632 83.012267-83.7632a83.5584 83.5584 0 0 1 60.962133 140.219734l30.72 232.174933 56.388267-21.640533-53.521067-431.9232 4.232533-0.955734c5.3248-18.6368 20.411733-33.109333 39.253334-37.341866l1.365333-5.597867 236.3392 59.5968 208.418133-180.292267 4.096 5.256534c5.461333-1.2288 11.127467-1.501867 16.725334-0.8192l3.6864-6.3488 241.527466 182.613333 239.069867-60.279467 1.2288 5.9392a53.6576 53.6576 0 0 1 38.775467 37.751467l5.256533 0.955733-80.418133 433.152L1331.2 547.4304l1.160533 0.477867 23.893334 10.103466-3.003734 6.144a52.8384 52.8384 0 0 1 11.332267 32.9728c0 12.288-4.096 23.7568-11.332267 32.9728l3.208534 6.280534-24.098134 9.762133z m-418.679467-475.067733l-1.297066 2.184533-227.601067-172.168533-199.0656 172.032-1.2288-1.979734-0.2048 0.682667-188.689067-47.581867 38.229334 307.882667 348.3648-133.802667v-0.273066l354.577066 136.260266 57.480534-308.8384-180.565334 45.602134zM682.666667 412.535467L202.683733 597.060267 682.666667 781.5168l479.982933-184.456533L682.666667 412.535467z"  horiz-adv-x="1365" />

    
    <glyph glyph-name="-xiangcun" unicode="&#60319;" d="M830.1568 243.6608c-57.7024 75.264-107.52 116.8384-126.72 279.7056C682.9056 683.8784 645.12 856.6784 512.512 892.5184a90.2656 90.2656 0 0 1-17.408 2.56c-3.9424 0-12.4416-1.6384-17.408-2.56-134.4-28.3136-170.3424-208.7936-190.976-369.152-19.1488-163.072-69.12-204.5952-126.6688-279.7056-49.8176-61.696-58.7264-101.8368-57.344-152.832 0-8.704 0.2048-17.8176 0.2048-27.904 2.1504-99.2256 101.0176-100.8128 101.2224-100.8128H465.408v-59.4944a29.5936 29.5936 0 1 1 59.3408 0V-37.888h261.5296c0.2048 0.2048 98.816 1.792 101.2224 100.864 0 10.0352 0.2048 19.1488 0.2048 27.8528 1.3824 50.9952-7.68 91.136-57.5488 152.832zM409.4976 764.928h171.2128c31.4368-59.136 53.5552-148.0704 63.0272-240.4352H346.624c9.2672 92.16 31.6416 181.2992 62.8736 240.4352z m122.9312 59.2896H457.9328c16.7936 16.5888 58.3168 16.0256 74.496 0zM465.408 465.0496v-443.648H341.0944V465.0496H465.408z m59.3408-443.648V465.0496h123.7504v-443.648H524.7488z m-362.8032 41.3184v27.904c1.4336 49.0496-0.768 54.9376 45.056 116.6336 24.1664 30.8224 50.8416 61.2864 74.752 101.0176l1.024-286.8736H204.0832c-0.4096 1.5872-42.1376-1.536-42.1376 41.3184z m666.2656 0c0-43.0592-41.9328-39.7312-41.9328-41.472h-78.08l-0.5632 288.768c24.064-40.704 51.2-71.5264 75.6736-102.7584 45.6704-61.696 43.52-67.584 45.056-116.6336-0.1536-8.0896-0.1536-17.408-0.1536-27.904zM584.448 617.472l-23.9104 54.3744H429.6704L405.7088 617.472z"  horiz-adv-x="1024" />

    
    <glyph glyph-name="-zhaoshang" unicode="&#60320;" d="M27.648 852.992C27.648 876.288 47.104 895.1808 71.0656 895.1808c23.9104 0 43.3152-18.8928 43.3152-42.1888v-971.008H27.648V852.992zM200.96 761.344s147.456 144.896 376.6784 19.1488c229.2736-125.7984 384 15.104 384 15.104v-588.032s-151.9616-143.0016-390.144-12.1856-370.5344-20.6848-370.5344-20.6848V761.344z m334.1824-54.4256c-97.536 53.504-176.0768 50.5344-241.664 15.616a209.408 209.408 0 0 1-5.888-3.2768v-399.0528c95.232 27.0848 206.1312 14.7968 326.4512-51.3024 104.0384-57.088 187.6992-55.1424 256.512-20.1728l4.4544 2.3552V658.1248c-102.144-28.7232-218.0096-18.0224-339.8656 48.8448z"  horiz-adv-x="1024" />

    
    <glyph glyph-name="-zhengwu" unicode="&#60321;" d="M848.64-126.976H320.512a23.6544 23.6544 0 0 0-23.6544 23.6544v20.1728H126.3104a23.6544 23.6544 0 0 0-23.7568 23.6544V623.8208a23.6544 23.6544 0 0 0 23.7056 23.7056h528.1792a23.6544 23.6544 0 0 0 23.7056-23.7056v-165.7856h170.496a23.6544 23.6544 0 0 0 23.7056-23.7056v-537.6a23.6544 23.6544 0 0 0-23.7056-23.7056zM622.4384 575.2832a16.5888 16.5888 0 0 1-16.5376 16.5888h-431.104a16.5888 16.5888 0 0 1-16.5376-16.5888V-9.728c0-9.216 7.424-16.5888 16.5376-16.5888h122.0096V434.3296a23.6544 23.6544 0 0 0 23.6544 23.7056h301.9776v117.248z m194.2528-175.2576a16.5888 16.5888 0 0 1-16.5888 16.5376h-431.104a16.5888 16.5888 0 0 1-16.5376-16.5376v-452.4032a16.5888 16.5888 0 0 1 16.5888-16.5888h431.0528a16.5888 16.5888 0 0 1 16.5888 16.5888V400.0256z m-150.1696-349.3888a26.0608 26.0608 0 0 0-26.112 26.112v49.664a26.0608 26.0608 0 0 0 52.1728 0V76.8a26.0608 26.0608 0 0 0-26.112-26.112z m0 175.2576a26.0608 26.0608 0 0 0-26.112 26.112v49.664a26.0608 26.0608 0 0 0 52.1216 0v-49.664a26.0608 26.0608 0 0 0-26.0608-26.112z m-168.448-175.2576A26.0608 26.0608 0 0 0 472.064 76.8v49.664a26.0608 26.0608 0 0 0 52.1216 0V76.8a26.0608 26.0608 0 0 0-26.112-26.112z m0 175.2576a26.0608 26.0608 0 0 0-26.0096 26.112v49.664a26.0608 26.0608 0 0 0 52.1216 0v-49.664a26.0608 26.0608 0 0 0-26.112-26.112zM376.1664 895.0272h227.3792c9.216 0 16.5888-7.424 16.5888-16.5888V736.256a16.5888 16.5888 0 0 0-16.5888-16.5376h-227.328a16.5888 16.5888 0 0 0-16.5888 16.5376V878.4384c0 9.1648 7.424 16.5888 16.5376 16.5888z m49.7664-41.472h130.2528c9.1648 0 16.5888-7.424 16.5888-16.5888v-56.832a16.5888 16.5888 0 0 0-16.5888-16.5888H425.8816a16.5888 16.5888 0 0 0-16.5888 16.5888v56.832c0 9.216 7.424 16.5888 16.5888 16.5888z m-54.4768-46.1824h26.0608c6.5536 0 11.8272-5.2736 11.8272-11.8272v-157.4912a11.8272 11.8272 0 0 0-11.8272-11.8784h-26.112a11.8272 11.8272 0 0 0-11.776 11.8784V795.5456c0 6.5536 5.2736 11.8272 11.776 11.8272z"  horiz-adv-x="1024" />

    
    <glyph glyph-name="-chanyefazhan" unicode="&#60322;" d="M5.119842 593.458812a48.760396 48.760396 0 0 1 64.16868-27.06202l548.65197 232.879649c25.014083 10.727287 36.96038 40.032285 26.525655 65.582732A48.760396 48.760396 0 0 1 580.248707 891.921193L31.596736 659.139065c-25.111604-10.629766-36.96038-39.983524-26.476894-65.680253zM1215.011535 584.876982a48.760396 48.760396 0 0 0-64.16868-27.11078L581.516477 799.276441a50.56453 50.56453 0 0 0-26.476895 65.582732 48.760396 48.760396 0 0 0 64.168681 27.06202L1188.388359 650.215912c25.160364-10.532245 36.96038-39.886004 26.623176-65.43645zM664.750472-96.403264a48.760396 48.760396 0 0 0-64.217441-27.062019L31.206653 118.093716a50.56453 50.56453 0 0 0-26.476895 65.533972 48.760396 48.760396 0 0 0 64.168681 27.062019l569.228857-241.60776c25.111604-10.434725 37.057901-39.934764 26.623176-65.43645zM574.54374-96.110701a48.760396 48.760396 0 0 1 64.168681-27.06202l549.82222 233.367253c25.014083 10.727287 36.96038 40.032285 26.476894 65.582732a48.760396 48.760396 0 0 1-64.16868 27.06202l-549.77346-233.416014c-25.014083-10.629766-36.96038-39.983524-26.525655-65.533971z m90.206732 215.715989a48.760396 48.760396 0 0 0-64.217441-27.062019L31.206653 334.053508a50.56453 50.56453 0 0 0-26.476895 65.533971 48.760396 48.760396 0 0 0 64.168681 27.06202l569.228857-241.60776c25.111604-10.434725 37.057901-39.886004 26.623176-65.436451zM574.54374 119.84909a48.760396 48.760396 0 0 1 64.168681-27.062019l549.82222 233.416013c25.014083 10.629766 36.96038 39.983524 26.476894 65.533972a48.760396 48.760396 0 0 1-64.16868 27.062019l-549.77346-233.367253c-25.014083-10.727287-36.96038-40.032285-26.525655-65.582732z m90.206732 230.977994a48.760396 48.760396 0 0 0-64.217441-27.06202L31.206653 565.275303a50.56453 50.56453 0 0 0-26.476895 65.533972 48.760396 48.760396 0 0 0 64.168681 27.062019l569.228857-241.607759c25.111604-10.434725 37.057901-39.886004 26.623176-65.436451zM574.54374 351.070886a48.760396 48.760396 0 0 1 64.168681-27.06202l549.82222 233.367253c25.014083 10.727287 36.96038 40.032285 26.476894 65.582732a48.760396 48.760396 0 0 1-64.16868 27.06202L601.069395 416.653618c-25.014083-10.727287-36.96038-40.032285-26.525655-65.582732z"  horiz-adv-x="1219" />

    
    <glyph glyph-name="-qiyeguanli" unicode="&#60323;" d="M1029.389474-92.698947H48.505263a48.774737 48.774737 0 0 0-48.128 49.367579c0 27.216842 21.557895 49.313684 48.128 49.313684h27.75579V806.373053c0 48.990316 38.804211 88.818526 86.554947 88.818526h470.447158c47.696842 0 86.554947-39.828211 86.554947-88.818526v-124.01179h199.141053c47.696842 0 86.554947-39.882105 86.554947-88.818526v-587.560421h23.929263c26.570105 0 48.128-22.096842 48.128-49.313684 0-27.270737-21.557895-49.367579-48.128-49.367579zM623.616 593.542737V796.510316H172.463158v-790.528h451.206737V593.542737z m285.642105-9.862737h-189.493894v-577.697684h189.493894V583.733895z m-579.045052-8.245895H246.837895a48.720842 48.720842 0 0 0-48.074106 49.367579c0 27.216842 21.557895 49.367579 48.074106 49.367579h83.375158c26.516211 0 48.020211-22.096842 48.02021-49.367579s-21.557895-49.367579-48.02021-49.367579z m0-181.679158H246.837895a48.720842 48.720842 0 0 0-48.074106 49.313685c0 27.216842 21.557895 49.313684 48.074106 49.313684h83.375158c26.516211 0 48.020211-22.096842 48.02021-49.313684 0-27.216842-21.557895-49.313684-48.02021-49.313685z m0-181.840842H246.837895a48.720842 48.720842 0 0 0-48.074106 49.367579c0 27.216842 21.557895 49.313684 48.074106 49.313684h83.375158c26.516211 0 48.020211-22.096842 48.02021-49.313684 0-27.270737-21.557895-49.367579-48.02021-49.367579z m218.974315 363.52H465.812211a48.720842 48.720842 0 0 0-48.074106 49.367579c0 27.216842 21.557895 49.367579 48.074106 49.367579h83.375157c26.570105 0 48.074105-22.096842 48.074106-49.367579s-21.557895-49.367579-48.074106-49.367579z m265.269895-210.944a48.774737 48.774737 0 0 0-48.02021 49.367579v47.157895c0 27.216842 21.557895 49.313684 48.02021 49.313684 26.570105 0 48.128-22.096842 48.128-49.313684v-47.157895c0-27.216842-21.557895-49.367579-48.128-49.367579z m0.10779-221.507368a48.774737 48.774737 0 0 0-48.128 49.313684v47.589053c0 27.216842 21.557895 49.367579 48.128 49.367579 26.516211 0 48.020211-22.096842 48.02021-49.367579v-47.589053c0-27.216842-21.557895-49.367579-48.02021-49.367579zM549.187368 393.701053H465.812211a48.720842 48.720842 0 0 0-48.074106 49.313684c0 27.216842 21.557895 49.313684 48.074106 49.313684h83.375157c26.570105 0 48.074105-22.096842 48.074106-49.313684 0-27.216842-21.557895-49.313684-48.074106-49.313684z m0-181.840842H465.812211a48.720842 48.720842 0 0 0-48.074106 49.367578c0 27.216842 21.557895 49.313684 48.074106 49.313685h83.375157c26.570105 0 48.074105-22.096842 48.074106-49.313685 0-27.270737-21.557895-49.367579-48.074106-49.367578z"  horiz-adv-x="1078" />

    
    <glyph glyph-name="-shujuguanli" unicode="&#60324;" d="M1000.163556 787.911111v-47.047111 18.659556a30.151111 30.151111 0 0 1-30.151112 28.387555h30.151112zM108.088889 787.911111h47.047111-18.659556a30.151111 30.151111 0 0 1-28.387555-30.151111V787.911111z m0.113778-807.822222v47.047111-18.602667a30.151111 30.151111 0 0 1 30.151111-28.444444h-30.151111z m891.733333 0.170667h-47.047111 18.659555a30.151111 30.151111 0 0 1 28.387556 30.151111v-30.151111zM271.587556 44.885333c25.998222 0 47.160889 21.048889 47.160888 47.104V340.821333a47.160889 47.160889 0 1 1-94.264888 0v-248.945777a47.217778 47.217778 0 0 1 47.104-46.990223z m567.466666 0c25.998222 0 47.160889 21.048889 47.160889 47.104v375.466667a47.160889 47.160889 0 1 1-94.264889 0v-375.466667a47.217778 47.217778 0 0 1 47.104-47.104z m-283.648 0c25.998222 0 47.104 21.048889 47.104 47.104V630.328889a47.160889 47.160889 0 1 1-94.264889 0v-538.396445c0-25.998222 21.162667-46.990222 47.160889-46.990222zM1079.864889-29.184V824.718222A78.222222 78.222222 0 0 1 1005.568 896H73.386667A78.165333 78.165333 0 0 1 0 822.385778V-25.6a78.392889 78.392889 0 0 1 72.874667-74.012444h938.097777a78.449778 78.449778 0 0 1 68.835556 70.485333z m-985.713778 23.665778V801.848889h891.505778v-807.367111H94.208z"  horiz-adv-x="1080" />

    
    <glyph glyph-name="-shujuguanli1" unicode="&#60325;" d="M512.355506-127.998664a509.417075 509.417075 0 0 0-361.872224 149.815456 509.417075 509.417075 0 0 0-149.815457 361.827702A509.417075 509.417075 0 0 0 150.483282 745.516718 509.417075 509.417075 0 0 0 512.310984 895.332175a509.417075 509.417075 0 0 0 361.872224-149.815457A509.417075 509.417075 0 0 0 1023.998664 383.689016a509.417075 509.417075 0 0 0-149.815456-361.872224 509.01638 509.01638 0 0 0-162.682223-109.6569 509.01638 509.01638 0 0 0-199.145479-40.158556z m0 949.7365c-241.663685 0-438.182385-196.563222-438.182385-438.182385 0-241.663685 196.5187-438.182385 438.182385-438.182385 241.619163 0 438.182385 196.652265 438.182385 438.271428 0 241.53012-196.563222 438.093342-438.182385 438.093342zM512.355506-127.998664a509.417075 509.417075 0 0 0-361.872224 149.815456 509.417075 509.417075 0 0 0-149.815457 361.827702A509.417075 509.417075 0 0 0 150.483282 745.516718 509.417075 509.417075 0 0 0 512.310984 895.332175a509.417075 509.417075 0 0 0 361.872224-149.815457A509.417075 509.417075 0 0 0 1023.998664 383.689016a509.417075 509.417075 0 0 0-149.815456-361.872224 509.01638 509.01638 0 0 0-162.682223-109.6569 509.01638 509.01638 0 0 0-199.145479-40.158556z m0 949.7365c-241.663685 0-438.182385-196.563222-438.182385-438.182385 0-241.663685 196.5187-438.182385 438.182385-438.182385 241.619163 0 438.182385 196.652265 438.182385 438.271428 0 241.53012-196.563222 438.093342-438.182385 438.093342zM986.244279 343.708546H513.245939a36.685865 36.685865 0 1 0 0 73.460774h472.99834a36.685865 36.685865 0 1 0 0-73.460774zM513.245939 343.708546a36.685865 36.685865 0 0 0-36.730387 36.730387V855.707879a36.685865 36.685865 0 1 0 73.460774 0V380.438933a36.685865 36.685865 0 0 0-36.730387-36.730387zM180.446373 11.131589a36.774909 36.774909 0 0 0-25.95614 62.77557l336.049649 336.049649a36.774909 36.774909 0 0 0 52.001323-52.001324l-336.138692-336.049648a36.240648 36.240648 0 0 0-25.95614-10.774247zM551.93528 382.665017a36.774909 36.774909 0 0 0-25.95614 62.775571l297.716481 297.627438a36.774909 36.774909 0 0 0 52.001324-52.001324L577.89142 393.350221a36.596822 36.596822 0 0 0-25.95614-10.685204z m-38.689341 108.32125a36.685865 36.685865 0 0 0-25.911618 62.775571l243.489074 242.954813a36.685865 36.685865 0 0 0 52.001323-0.133565 36.685865 36.685865 0 0 0-0.133565-52.001323l-243.489074-242.776727a36.240648 36.240648 0 0 0-25.95614-10.818769z m146.921548-146.921547a36.685865 36.685865 0 0 0-25.911619 62.77557l243.489074 242.910292a36.685865 36.685865 0 0 0 52.001324-0.089043 36.685865 36.685865 0 0 0-0.133565-52.001324l-243.444553-242.821248a36.418735 36.418735 0 0 0-25.95614-10.774247z m146.966069-0.356174a36.685865 36.685865 0 0 0-25.911618 62.775571l147.722937 147.322242a36.685865 36.685865 0 0 0 52.001324-0.133565 36.685865 36.685865 0 0 0-0.133565-52.001323l-147.722938-147.277721a36.596822 36.596822 0 0 0-25.95614-10.685204zM512.444549 638.397553a36.685865 36.685865 0 0 0-25.911618 62.775571l147.722937 147.322242a36.685865 36.685865 0 0 0 52.001324-0.133565 36.685865 36.685865 0 0 0-0.089044-52.001323l-147.767459-147.277721a36.596822 36.596822 0 0 0-25.95614-10.685204z"  horiz-adv-x="1024" />

    
    <glyph glyph-name="-yonghu" unicode="&#60326;" d="M512 228.352a222.72 222.72 0 0 0-222.4128 222.3616A222.72 222.72 0 0 0 512 673.1776a222.72 222.72 0 0 0 222.4128-222.464A222.72 222.72 0 0 0 512 228.352z m0 355.84a133.632 133.632 0 0 1-133.4784-133.4784A133.632 133.632 0 0 1 512 317.2864a133.632 133.632 0 0 1 133.4784 133.4272A133.632 133.632 0 0 1 512 584.192zM850.944 18.0736a44.3904 44.3904 0 0 0-39.8848 24.7296A332.0832 332.0832 0 0 1 512 228.3008a331.9296 331.9296 0 0 1-299.0592-185.4976 44.4928 44.4928 0 1 0-79.6672 39.6288A420.5056 420.5056 0 0 0 512 317.2864a420.5056 420.5056 0 0 0 378.7264-234.8544 44.4928 44.4928 0 0 0-39.8336-64.3584zM512-127.6928C229.8368-127.6928 0.3072 101.888 0.3072 384S229.888 895.6928 512 895.6928 1023.6928 666.112 1023.6928 384 794.112-127.6928 512-127.6928z m0 934.3488c-233.0624 0-422.656-189.5936-422.656-422.656 0-233.0624 189.5936-422.656 422.656-422.656 233.0624 0 422.656 189.5936 422.656 422.656 0 233.0624-189.5936 422.656-422.656 422.656z"  horiz-adv-x="1024" />

    
    <glyph glyph-name="warning" unicode="&#60327;" d="M512 895.842462a511.842462 511.842462 0 1 0 0-1023.684924A511.842462 511.842462 0 0 0 512 895.842462z m0-687.18277a77.508923 77.508923 0 1 1 0-155.017846 77.508923 77.508923 0 0 1 0 155.017846z m-2.205538 60.652308c36.864 0 66.717538 29.853538 66.717538 66.717538V647.640615a66.796308 66.796308 0 1 1-133.513846 0V335.95076900000004c0-36.864 29.932308-66.796308 66.796308-66.796307z"  horiz-adv-x="1024" />

    
    <glyph glyph-name="gou" unicode="&#60328;" d=""  horiz-adv-x="1365" />

    
    <glyph glyph-name="chanyefazhan" unicode="&#60357;" d="M1300.48 716.041481v7.016297h-6.940444l1.991111-2.010074c1.972148-1.517037 3.470222-3.015111 4.93037-5.006223zM62.426074 315.088593L452.001185 600.177778l319.336296-309.532445L1291.832889 760.699259c0.758519 0.777481 1.554963 1.72563 2.332444 2.673778l0.948148-108.999111c0.132741-21.579852 17.578667-39.063704 38.912-39.063704h0.303408c21.485037 0.151704 38.779259 17.957926 38.627555 39.689482L1371.079111 896 1115.894519 895.67763c-21.485037 0-38.930963-17.635556-38.930963-39.367111 0-21.750519 17.445926-39.386074 38.930963-39.386075l121.438814 0.151704-0.151703-0.151704-466.62163-416.616296L462.108444 702.388148 16.820148 378.88a39.632593 39.632593 0 0 1-8.722963-54.97363 38.58963 38.58963 0 0 1 54.328889-8.817777zM1298.450963 816.924444v-7.016296a23.627852 23.627852 0 0 1-4.949333 5.006222l-1.991111 2.010074h6.940444z m56.888889-866.171259H1117.620148V469.143704c0 21.731556-17.445926 39.367111-38.930963 39.367111s-38.912-17.635556-38.912-39.367111v-518.390519H808.694519V181.665185c0 21.750519-17.445926 39.386074-38.930963 39.386074s-38.912-17.635556-38.912-39.386074v-230.912H514.427259c0 0.796444 0.151704 1.573926 0.151704 2.370371V428.942222c0 21.750519-17.445926 39.386074-38.912 39.386074-21.504 0-38.930963-17.635556-38.930963-39.386074v-475.837629c0-0.796444 0-1.573926 0.151704-2.370371H218.605037V283.420444c0 21.750519-17.445926 39.386074-38.930963 39.386075s-38.930963-17.635556-38.930963-39.386075v-332.667259H30.985481c-17.123556 0-30.985481-17.635556-30.985481-39.367111C0-110.364444 13.842963-128 30.985481-128h1324.373334c17.123556 0 30.985481 17.635556 30.985481 39.386074-0.170667 21.731556-14.032593 39.367111-30.985481 39.367111z"  horiz-adv-x="1403" />

    
    <glyph glyph-name="rencaiyinzhi" unicode="&#60358;" d="M1198.068284 460.280426L1127.227731 432.42584v-328.555678a113.987066 113.987066 0 0 0-75.85759-107.404714l-331.646172-117.860219a114.107475 114.107475 0 0 0-76.519839 0l-331.66624 117.880287a113.987066 113.987066 0 0 0-75.85759 107.384646V429.134664l-17.358945 6.823169a35.420277 35.420277 0 0 0 25.928043 65.90379l425.725638-167.408469c5.418399-2.48845 9.211279-2.48845 12.502455-0.943203 0.461567 0.22075 198.714776 78.205563 594.719491 233.95444a12.241569 12.241569 0 0 1 0.020068 21.372575L684.604714 821.868271c-5.398331 2.48845-9.211279 2.48845-12.482386 0.943202-0.481635-0.240818-198.714776-78.225631-594.719491-233.994576a12.241569 12.241569 0 0 1 0-21.352506l36.644434-14.408929a35.400209 35.400209 0 0 0-25.887908-65.90379l-38.109408 14.970837c-65.602768 30.884876-65.602768 121.211599-2.147292 151.133203 0.461567 0.200681 198.875322 78.265767 595.221195 234.155122a83.041986 83.041986 0 0 0 68.352103 0L1304.569932 654.178847c65.582699-30.864808 65.582699-121.171462 2.147292-151.113135l-39.132884-15.412336c0.86293-3.090494 1.304429-6.28133 1.30443-9.492233v-352.035407a35.420277 35.420277 0 1 0-70.840554 0V460.280426h0.020068z m-141.661039-55.709172L711.475961 268.870454a82.961713 82.961713 0 0 0-68.352103 0l-336.623072 132.369488v-297.409916c0-18.221876 11.519115-34.51721 28.757652-40.637995l331.686308-117.900354c9.391892-3.331312 19.666783-3.331312 29.038607 0l331.686308 117.900354a43.146513 43.146513 0 0 1 28.737584 40.637995V404.571254z"  horiz-adv-x="1364" />

    
    <glyph glyph-name="zhihuichengshi" unicode="&#60359;" d="M594.450016-121.248315C315.982102-166.815791 52.380981 23.115065 6.794541 301.582979-19.260271 462.311208 30.384196 622.015448 144.008966 739.73617c8.191906 8.722863 22.015747 8.722863 30.719647 0.511995 8.7039-8.191906 8.7039-21.996784 0.511994-30.719648C71.305801 602.06664 25.22633 455.674247 49.309016 308.21994 90.761577 53.303755 332.365914-120.224326 587.282099-78.752802c254.897222 41.452561 428.425303 283.075861 386.972742 537.992045C932.783317 714.667421 691.709937 888.214466 436.281758 846.230948a481.3124 481.3124 0 0 1-133.099509-42.47655c-10.751877-5.650898-23.532767-1.042951-29.164702 9.708926-5.631935 10.751877-1.023988 23.55173 9.708926 29.183665h0.511994A513.378402 513.378402 0 0 0 429.606872 889.219491C708.074786 934.786968 971.69487 745.387069 1017.243384 466.407161c45.567477-278.467914-144.344417-542.087998-422.793368-587.655476zM405.088042 421.996411l-27.002949-26.263402 100.938693-98.378722 151.13308 147.018164-27.00295 26.263402-124.13013-120.565135-73.935744 71.925693zM737.580817 616.516252s-73.651303 2.465157-224.329276 85.313391l-9.12108 5.119941-9.102118-5.119941c-150.715899-82.848234-223.987947-85.313391-223.987947-85.313391h-18.962745v-246.439837c0-110.135624 63.771712-165.696468 134.938895-217.4458l117.113915-75.832018 117.094952 75.832018c71.186146 51.768295 134.957858 107.310175 134.957857 217.4458V616.516252h-18.58349z m-18.962745-247.577602c0-83.985999-41.964555-130.425762-118.460269-186.15727l-94.889578-62.387432-94.90854 62.387432c-78.391989 55.541881-120.337581 101.981644-120.337581 185.967643V580.695626c31.326455 5.119941 102.493638 22.755294 214.089394 83.018899 111.614718-60.263604 182.800864-77.898957 214.108357-83.018899l0.379254-211.756976z"  horiz-adv-x="1024" />

    
    <glyph glyph-name="xiangcunzhenxing" unicode="&#60360;" d="M1015.276308 466.116923c0 4.470154 3.702154 8.172308 8.172307 8.172308h100.155077a56.595692 56.595692 0 0 1 55.256616 42.377846 56.595692 56.595692 0 0 1-26.663385 64.295385L619.224615 888.359385a57.816615 57.816615 0 0 1-57.166769 0L29.223385 580.942769A56.595692 56.595692 0 0 1 2.56 516.667077a56.457846 56.457846 0 0 1 55.236923-42.377846h100.036923c4.470154 0 8.172308-3.702154 8.172308-8.152616v-520.605538c0-3.820308 0.886154-7.384615 2.56-10.574769H52.578462a24.497231 24.497231 0 0 1 0-49.014154h1092.726153a24.497231 24.497231 0 0 1 0 49.014154h-132.450461c1.536 3.190154 2.56 6.754462 2.56 10.574769V466.136615h-0.137846zM435.239385-65.024H212.578462c1.536 3.190154 2.56 6.754462 2.56 10.574769V466.136615a57.107692 57.107692 0 0 1-0.787693 8.152616h221.144616v-539.332923h-0.256z m273.309538 0H484.233846V474.289231h224.295385v-539.332923z m49.112615 0V474.289231h209.526154a57.107692 57.107692 0 0 1-0.787692-8.152616v-520.605538c0-3.820308 0.905846-7.384615 2.56-10.574769h-211.298462zM157.833846 523.283692h-100.036923c-5.218462 0-7.148308 3.328-7.916308 6.006154-0.748308 2.816-0.630154 6.636308 3.84 9.176616L586.555077 845.725538a8.448 8.448 0 0 0 8.172308 0l532.834461-307.259076c4.470154-2.56 4.588308-6.360615 3.84-9.176616-0.787692-2.816-2.697846-6.006154-7.916308-6.006154H157.833846z"  horiz-adv-x="1181" />

    
    <glyph glyph-name="yuanquguanli" unicode="&#60361;" d="M39.367111-115.825778A39.405037 39.405037 0 0 0 0-76.458667c0 134.902519 39.442963 194.23763 117.285926 318.824297a328.874667 328.874667 0 0 0-44.942222 91.856592c-28.899556 94.245926-21.959111 189.288296-7.281778 241.967408C87.191704 655.587556 124.776296 716.98963 179.844741 763.998815c50.763852 43.311407 116.963556 74.315852 202.334815 94.738963C526.904889 893.326222 719.701333 896 976.308148 896h68.058074c11.396741 0 22.243556-4.93037 29.696-13.577481l0.18963-0.18963 0.360296-0.417185c7.471407-8.912593 10.638222-20.574815 8.666074-32.047408-34.360889-198.504296-87.988148-361.66163-159.345778-484.977777-61.458963-106.116741-136.779852-184.357926-223.87674-232.542815-68.778667-38.039704-144.137481-57.306074-223.93363-57.306074-14.942815 0-29.809778 0.644741-44.183704 1.896296a538.168889 538.168889 0 0 0-155.306666 37.262222 349.013333 349.013333 0 0 0-45.738667 22.926222 39.442963 39.442963 0 0 0-13.729185 53.94963 39.442963 39.442963 0 0 0 53.949629 13.710222c11.529481-6.864593 23.400296-12.781037 35.271112-17.635555 30.606222-12.534519 93.221926-33.564444 168.978963-33.564445h0.037925c66.56 0 129.327407 16.042667 186.481778 47.691852 160.483556 88.822519 273.256296 296.011852 335.341037 615.992889h-17.161481c-517.30963 0-769.061926-11.150222-839.111111-262.219852-9.53837-34.190222-18.811259-114.346667 6.750815-197.745778 4.608-15.17037 10.865778-29.999407 18.545777-44.316444a954.538667 954.538667 0 0 0 83.399111 95.307852c66.23763 66.294519 141.596444 122.500741 217.846519 162.455703 75.757037 39.727407 147.247407 60.73837 206.696296 60.738371 21.69363 0 39.367111-17.654519 39.367111-39.386074 0-21.69363-17.635556-39.367111-39.367111-39.367111-46.08 0-106.533926-18.375111-170.249481-51.693037-69.101037-36.181333-137.822815-87.476148-198.712889-148.366223-84.574815-84.555852-226.531556-189.933037-226.531556-428.999111a39.386074 39.386074 0 0 0-39.348148-39.405037z"  horiz-adv-x="1099" />

    
    <glyph glyph-name="zhaoshangyinzi" unicode="&#60362;" d="M900.266667-69.632C894.198519 128.474074 758.518519 294.874074 576.056889 348.122074c3.185778 1.573926 12.174222 7.016296 13.558518 7.717926 9.424593 5.271704 31.573333 20.347259 33.697186 21.902222 7.926519 6.011259 29.051259 25.088 32.104296 28.141037 5.783704 5.878519 36.219259 43.804444 39.196444 48.526222 6.011259 9.443556 11.282963 19.380148 16.194371 29.506371 0.663704 1.422222 1.479111 2.635852 2.104889 4.020148a283.192889 283.192889 0 0 1 26.396444 119.352889c0 158.90963-129.270519 288.180148-288.237037 288.180148h-0.379259c-158.90963 0-288.256-129.251556-288.256-288.180148 0-114.024296 66.825481-212.536889 163.119407-259.223704C143.208296 294.72237 7.547259 128.436148 1.479111-69.632c-0.075852-0.967111-0.568889-1.72563-0.568889-2.654815 0-0.568889 0.284444-0.986074 0.322371-1.498074 0.227556-5.575111 1.592889-10.770963 3.925333-15.587555a39.177481 39.177481 0 0 1 35.271111-22.414223 39.442963 39.442963 0 0 1 35.802074 23.153778c1.668741 3.659852 2.275556 7.68 2.768593 11.813926 0.227556 1.554963 0.910222 2.88237 0.910222 4.513185s-0.70163 3.034074-0.948148 4.683852c0 5.878519 0.132741 11.643259-0.056889 17.521778-0.170667 3.489185 0.739556 6.257778 1.441185 9.102222h-1.005037c11.757037 103.272296 66.180741 193.991111 144.839111 254.27437 1.460148 0.815407 3.034074 1.403259 4.380445 2.351408l0.796444-0.720593c46.459259 35.081481 100.939852 59.904 160.350815 70.162963 1.024 0.151704 2.085926 0.284444 3.109926 0.493037 8.666074 1.365333 17.408 2.56 26.282666 3.337482 7.774815 0.663704 15.644444 0.929185 23.514075 1.099852 2.787556 0.075852 5.423407 0.379259 8.267851 0.379259 12.382815 0 24.632889-0.872296 36.655408-2.142815l0.037926 0.303407c174.459259-17.009778 315.06963-155.534222 334.885926-329.576296h-1.005037c0.758519-2.844444 1.611852-5.613037 1.441185-9.083259-0.227556-5.859556-0.056889-11.643259-0.056889-17.521778-0.246519-1.630815-0.948148-3.034074-0.948148-4.683852 0-1.630815 0.663704-2.977185 0.891259-4.513185 0.474074-4.133926 1.137778-8.173037 2.844444-11.813926a39.253333 39.253333 0 0 1 35.764149-23.134815 39.253333 39.253333 0 0 1 35.290074 22.376297 39.822222 39.822222 0 0 1 3.868444 15.606518c0.037926 0.512 0.303407 0.929185 0.303408 1.479111-0.056889 0.948148-0.530963 1.72563-0.587852 2.692741M238.876444 607.288889c0 116.92563 95.080296 212.081778 212.005926 212.176592 116.887704-0.075852 211.986963-95.232 211.986963-212.176592 0-117.001481-95.099259-212.15763-211.986963-212.233482-116.92563 0.056889-212.005926 95.232-212.005926 212.233482M1261.511111-79.056593c-6.030222 198.049185-141.729185 364.35437-324.077037 417.678223 96.331852 46.667852 163.13837 145.123556 163.13837 259.223703 0 158.53037-128.796444 287.573333-287.250963 288.142223V885.191111c-19.550815-1.554963-35.081481-17.445926-35.081481-37.413926 0-19.949037 15.54963-35.84 35.081481-37.432889v-0.379259c0.948148 0 1.85837-0.132741 2.787556-0.18963h0.227556c114.972444-2.389333 207.834074-96.44563 207.834074-211.930074 0-107.861333-83.607704-207.909926-188.226371-222.928592v-0.303408c-9.500444-1.630815-18.318222-5.385481-25.031111-11.719111a47.919407 47.919407 0 0 1-15.416889-35.043555c0-14.923852 7.168-27.761778 17.730371-36.598519 8.305778-6.97837 18.678519-11.643259 30.359703-11.719111-0.113778 0-0.151704-0.056889-0.227555-0.056889h0.587852c8.855704-0.83437 17.59763-1.972148 26.24474-3.413333l3.109926-0.417185c59.410963-10.296889 113.910519-35.081481 160.369778-70.181926a18.811259 18.811259 0 0 1 0.777482 0.739555c1.384296-0.967111 2.939259-1.554963 4.380444-2.351407 78.696296-60.359111 133.082074-151.021037 144.820148-254.293333h-0.948148c0.663704-2.901333 1.592889-5.613037 1.441185-9.102223-0.265481-5.840593-0.075852-11.624296-0.075852-17.502815-0.265481-1.649778-0.967111-3.034074-0.967111-4.759703 0-1.611852 0.663704-2.977185 0.948148-4.456297 0.474074-4.171852 1.061926-8.154074 2.730667-11.794962a39.480889 39.480889 0 0 1 35.821037-23.248593 39.253333 39.253333 0 0 1 35.271111 22.490074c2.313481 4.778667 3.659852 9.993481 3.925334 15.606519 0.037926 0.436148 0.303407 0.948148 0.303407 1.403259 0 1.005037-0.512 1.782519-0.587852 2.749629"  horiz-adv-x="1270" />

    
    <glyph glyph-name="gdpqushi" unicode="&#60410;" d="M512-79.416889c-270.222222 0-458.524444 74.638222-458.524444 141.653333V182.613333c89.656889-66.673778 278.186667-101.888 458.524444-101.888 180.337778 0 368.867556 35.214222 458.524444 101.831111v-120.32c0-67.015111-188.302222-141.653333-458.524444-141.653333zM512 847.416889c270.222222 0 458.524444-74.638222 458.524444-141.653333 0-66.958222-188.302222-141.653333-458.524444-141.653334S53.475556 638.862222 53.475556 705.763556C53.475556 772.778667 241.777778 847.416889 512 847.416889z m458.524444-350.321778c0-67.015111-188.302222-141.653333-458.524444-141.653333S53.475556 430.08 53.475556 497.095111V617.472C143.189333 550.798222 331.662222 515.584 512 515.584c180.337778 0 368.867556 35.271111 458.524444 101.888v-120.376889z m0-226.190222c0-66.958222-188.302222-141.653333-458.524444-141.653333S53.475556 203.889778 53.475556 270.904889V408.746667c89.656889-66.616889 278.186667-101.831111 458.524444-101.831111 180.337778 0 368.867556 35.214222 458.524444 101.831111v-137.841778zM512 896C263.793778 896 0 829.326222 0 705.763556v-643.527112C0-61.326222 263.793778-128 512-128s512 66.673778 512 190.236444V705.763556C1024 829.326222 760.206222 896 512 896z"  horiz-adv-x="1024" />

    
    <glyph glyph-name="chanyezongzhi" unicode="&#60411;" d="M722.185986 76.725541L512.047909-37.084013 301.836689 76.798683c-6.363388-17.042176-12.726775-28.452389-19.090163-39.789458-6.363388-11.410212-12.726775-22.747282-19.090163-28.452389L512.047909-128l248.318403 136.483694c-19.017021 22.747282-31.816938 45.494565-38.180326 68.241847zM161.84216 315.462292V548.567079l210.138078 113.809554c-19.017021 17.042176-31.816938 45.421422-44.543714 68.168705L78.898693 594.061644v-278.599352c25.526693 5.705106 51.053386 5.705106 82.943467 0zM15.264816 184.683704c-12.726775-22.747282-19.017021-51.199671-12.726775-79.578917 6.363388-28.379246 25.453551-51.199671 50.907101-62.536741 25.453551-11.33707 57.343631-17.042176 82.797182-11.33707 31.816938 5.705106 50.907101 22.67414 69.997265 51.199671a109.128441 109.128441 0 0 1 0 108.031306c-19.090163 34.084352-57.270489 51.199671-95.450815 51.199671-38.253468 0-70.070407-22.893567-95.523958-57.051062z m853.498514 130.778588a202.970124 202.970124 0 0 0 82.650897 0V594.061644L696.805578 730.545338c-6.363388-28.379246-25.453551-51.126528-44.543714-68.168705L862.399942 548.567079v-233.104787h6.363388zM1008.684716 76.798683a103.27705 103.27705 0 0 1-19.017021 130.778588 116.73525 116.73525 0 0 1-133.850568 17.042176c-44.689998-22.67414-63.633877-73.873811-50.907101-119.441517 6.363388-28.379246 25.453551-51.199671 50.907101-62.536741 51.053386-28.525531 121.05065-17.042176 152.867589 34.157494zM416.523951 844.354892c-31.816938-51.199671-12.726775-113.809554 44.616856-147.893906 50.907101-28.379246 121.05065-11.33707 146.504201 39.789458 31.816938 51.199671 12.726775 113.736412-44.616856 147.893907-19.017021 11.33707-50.833959 17.042176-82.650897 5.631963-25.599835-5.631964-51.126528-22.67414-63.853304-45.421422z"  horiz-adv-x="1024" />

    
    <glyph glyph-name="qianyue" unicode="&#60412;" d="M945.803636 217.739636c-106.402909 0-282.810182 76.334545-283.089454 157.696V404.48c0 31.837091 0 36.864 63.022545 92.066909 55.296 41.239273 88.343273 100.445091 91.322182 163.467636 2.978909 63.115636-24.296727 124.462545-75.403636 169.425455C693.154909 872.168727 627.153455 896 558.266182 896S423.377455 872.075636 375.156364 829.533091c-51.2-45.056-78.475636-106.402909-75.403637-169.518546 2.978909-63.115636 36.119273-122.321455 91.415273-163.560727 63.301818-55.296 63.301818-60.322909 63.301818-98.397091v-22.621091c0-81.361455-176.686545-157.975273-283.182545-157.975272-43.380364-0.186182-78.289455-30.72-78.196364-68.142546v-67.956363c0-6.144 2.792727-12.101818 7.912727-16.384A29.137455 29.137455 0 0 1 119.994182 58.181818h877.474909c14.708364 0.186182 26.530909 10.519273 26.530909 23.272727v68.142546c0.093091 37.422545-34.816 67.956364-78.196364 68.142545z"  horiz-adv-x="1117" />

    
    <glyph glyph-name="kaigong" unicode="&#60413;" d="M530.176 896c44.714667 0 85.845333-40.021333 85.845333-91.989333 0-48.042667-37.376-91.989333-85.845333-91.989334-44.885333 0-85.930667 40.021333-85.930667 91.989334C448 856.064 485.290667 896 530.090667 896z m291.157333-560.042667C866.133333 335.957333 1194.666667-128 1194.666667-128H477.866667s48.554667 91.989333 89.6 203.946667c14.933333 36.010667 67.157333 0 100.778666 36.010666 63.488 80.042667 70.912 224.085333 153.088 224.085334zM440.490667 732.074667c59.733333-15.957333 63.488-72.021333 63.488-72.021334V320L675.84 219.989333c14.933333-11.946667 18.602667-32-3.754667-32L399.445333 352l70.997334-151.978667-11.264-324.010666h-59.733334l-14.933333 288-100.778667 128L63.488-128H0l212.821333 584.021333V459.946667l-59.733333 32-41.130667 27.989333 14.933334 23.978667c52.309333 83.968 85.930667 151.978667 145.664 176.042666 33.536 7.936 115.712 23.893333 167.936 11.946667z m7.509333-379.989334l-7.509333 136.021334L377.173333 395.946667l70.912-44.032zM227.754667 484.010667l85.845333 164.010666H268.8L175.445333 516.010667l52.309334-32z"  horiz-adv-x="1194" />

    
    <glyph glyph-name="rencaiyinjin" unicode="&#60416;" d="M602.435368 284.995368a384.700632 384.700632 0 0 1-113.178947 28.294737l-0.053895-0.269473a370.202947 370.202947 0 0 1-36.810105 1.994105c-2.856421 0-5.497263-0.269474-8.299789-0.323369a389.497263 389.497263 0 0 1-23.605895-1.077894 401.515789 401.515789 0 0 1-26.408421-3.233685l-3.125895-0.431157a380.874105 380.874105 0 0 1-160.983579-67.368421l-0.808421 0.700631c-1.347368-0.916211-2.910316-1.509053-4.419368-2.263579-78.955789-57.882947-133.658947-144.976842-145.408-244.143158h1.024c-0.700632-2.694737-1.616842-5.389474-1.455158-8.730947 0.215579-5.658947 0.053895-11.210105 0.053894-16.815158 0.215579-1.616842 0.970105-2.964211 0.970106-4.527158 0-1.562947-0.700632-2.802526-0.916211-4.311579a36.756211 36.756211 0 0 0-2.802526-11.317895 39.720421 39.720421 0 0 0-35.94779-22.258526 39.504842 39.504842 0 0 0-35.408842 21.557895 36.325053 36.325053 0 0 0-3.934315 14.928842c0 0.538947-0.323368 0.916211-0.323369 1.401263 0 0.916211 0.538947 1.616842 0.538947 2.586947 6.090105 190.140632 142.282105 349.830737 325.416422 401.030737C229.861053 415.258947 162.816 509.844211 162.816 619.304421 162.816 771.880421 292.702316 896 452.230737 896h0.431158c159.528421 0 289.414737-124.119579 289.414737-276.695579 0-40.96-9.701053-79.710316-26.516211-114.58021-0.646737-1.347368-1.455158-2.479158-2.155789-3.880422-4.904421-9.701053-10.24-19.240421-16.222316-28.294736-3.018105-4.527158-33.576421-40.96-39.343158-46.618948-3.125895-2.910316-24.306526-21.234526-32.282947-27.001263-2.155789-1.509053-24.360421-15.952842-33.845895-21.018947-1.401263-0.700632-10.401684-5.928421-13.581474-7.437474 24.791579-6.898526 48.828632-15.845053 71.68-26.570105a245.113263 245.113263 0 0 1-47.319579-58.906948z m262.467369-356.082526c4.742737 0 9.162105 0.862316 13.365895 2.371369a262.952421 262.952421 0 0 0-13.365895-2.371369zM239.508211 619.304421c0-112.316632 95.501474-203.722105 212.88421-203.722105 117.328842 0 212.830316 91.405474 212.830316 203.722105 0 112.262737-95.501474 203.668211-212.884211 203.722105-117.328842-0.053895-212.830316-91.459368-212.830315-203.722105z"  horiz-adv-x="1132" />

    
    <glyph glyph-name="chakanziliaoicon" unicode="&#60444;" d="M998.144 396.544a358.314667 358.314667 0 0 1-71.253333 71.253333V752.64a71.253333 71.253333 0 0 1-71.253334 71.168H143.36a71.253333 71.253333 0 0 1-71.168-71.168v-712.362667c0-39.338667 31.829333-71.253333 71.168-71.253333h285.013333c20.224-26.965333 44.202667-50.944 71.168-71.253333H143.36a142.506667 142.506667 0 0 0-142.506667 142.506666V752.64C0.853333 831.402667 64.682667 895.146667 143.36 895.146667h712.362667c78.677333 0 142.506667-63.829333 142.506666-142.506667v-356.181333z m-597.077333 0H285.781333v71.253333h186.453334a358.314667 358.314667 0 0 1-71.168-71.253333z m-49.066667-142.506667a355.84 355.84 0 0 1-7.082667-71.253333h-59.136v71.253333h66.218667zM285.866667 681.472h427.434666v-71.253333h-427.52v71.253333z m215.466666-639.317333a249.344 249.344 0 1 0 375.978667 26.965333l102.570667-102.570667-50.346667-50.346666L826.88 18.773333a249.344 249.344 0 0 0-325.546667 23.381334z m302.250667 50.346666a178.090667 178.090667 0 1 1-251.904 251.904 178.090667 178.090667 0 0 1 251.904-251.904z"  horiz-adv-x="1024" />

    
    <glyph glyph-name="dingweiicon" unicode="&#60445;" d="M689.225143 124.416a21.942857 21.942857 0 0 1-11.483429-42.349714c73.069714-19.748571 105.764571-47.542857 105.764572-66.340572 0-14.482286-19.821714-37.083429-75.410286-56.905143-55.734857-19.894857-130.194286-30.866286-209.773714-30.866285-79.652571 0-154.112 10.971429-209.846857 30.866285-55.588571 19.821714-75.337143 42.422857-75.337143 56.905143 0 18.797714 32.621714 46.592 105.691428 66.340572a21.942857 21.942857 0 1 1-11.410285 42.422857c-89.161143-24.137143-138.24-62.756571-138.24-108.763429 0-26.843429 17.408-47.177143 31.963428-59.465143 17.481143-14.774857 41.910857-27.794286 72.557714-38.765714 60.342857-21.504 140.068571-33.426286 224.548572-33.426286 84.553143 0 164.278857 11.922286 224.548571 33.426286 30.72 10.971429 55.149714 23.990857 72.630857 38.765714 14.628571 12.288 31.963429 32.621714 31.963429 59.465143 0 46.006857-49.078857 84.626286-138.24 108.690286z m-280.868572-49.152c23.405714-26.843429 56.173714-42.203429 90.112-42.203429a119.222857 119.222857 0 0 1 90.038858 42.569143 1726.171429 1726.171429 0 0 1 128 160.329143C804.571429 361.398857 849.188571 465.334857 849.188571 544.914286a348.891429 348.891429 0 0 1-102.765714 248.173714A349.696 349.696 0 0 1 498.322286 896 349.769143 349.769143 0 0 1 250.148571 793.088 349.769143 349.769143 0 0 1 147.236571 544.914286c0-79.579429 44.690286-183.588571 132.900572-309.028572a1728.512 1728.512 0 0 1 128.146286-160.621714z m-46.153142 479.451429c0 77.385143 62.976 140.434286 140.434285 140.434285 77.385143 0 140.361143-63.049143 140.361143-140.434285 0-77.385143-62.976-140.434286-140.434286-140.434286a140.580571 140.580571 0 0 0-140.434285 140.434286z"  horiz-adv-x="1024" />

    
    <glyph glyph-name="dingweiicon1" unicode="&#60446;" d="M689.225143 124.416a21.942857 21.942857 0 0 1-11.483429-42.349714c73.069714-19.748571 105.764571-47.542857 105.764572-66.340572 0-14.482286-19.821714-37.083429-75.410286-56.905143-55.734857-19.894857-130.194286-30.866286-209.773714-30.866285-79.652571 0-154.112 10.971429-209.846857 30.866285-55.588571 19.821714-75.337143 42.422857-75.337143 56.905143 0 18.797714 32.621714 46.592 105.691428 66.340572a21.942857 21.942857 0 1 1-11.410285 42.422857c-89.161143-24.137143-138.24-62.756571-138.24-108.763429 0-26.843429 17.408-47.177143 31.963428-59.465143 17.481143-14.774857 41.910857-27.794286 72.557714-38.765714 60.342857-21.504 140.068571-33.426286 224.548572-33.426286 84.553143 0 164.278857 11.922286 224.548571 33.426286 30.72 10.971429 55.149714 23.990857 72.630857 38.765714 14.628571 12.288 31.963429 32.621714 31.963429 59.465143 0 46.006857-49.078857 84.626286-138.24 108.690286z m-280.868572-49.152c23.405714-26.843429 56.173714-42.203429 90.112-42.203429a119.222857 119.222857 0 0 1 90.038858 42.569143 1726.171429 1726.171429 0 0 1 128 160.329143C804.571429 361.398857 849.188571 465.334857 849.188571 544.914286a348.891429 348.891429 0 0 1-102.765714 248.173714A349.696 349.696 0 0 1 498.322286 896 349.769143 349.769143 0 0 1 250.148571 793.088 349.769143 349.769143 0 0 1 147.236571 544.914286c0-79.579429 44.690286-183.588571 132.900572-309.028572a1728.512 1728.512 0 0 1 128.146286-160.621714z m-46.153142 479.451429c0 77.385143 62.976 140.434286 140.434285 140.434285 77.385143 0 140.361143-63.049143 140.361143-140.434285 0-77.385143-62.976-140.434286-140.434286-140.434286a140.580571 140.580571 0 0 0-140.434285 140.434286z"  horiz-adv-x="1024" />

    
    <glyph glyph-name="guanbi" unicode="&#60448;" d="M590.978321 384.072762l416.537514 416.976283a54.626672 54.626672 0 0 1 0 76.784479l-2.26697 2.340098a54.480416 54.480416 0 0 1-76.711351 0l-416.68377-417.561307L95.389358 880.173622a54.480416 54.480416 0 0 1-76.711351 0l-2.340098-2.193842a53.602879 53.602879 0 0 1 0-76.784479L433.021679 384.072762 16.337909-32.976648a54.626672 54.626672 0 0 1 0-76.784479l2.26697-2.26697a54.480416 54.480416 0 0 1 76.711351 0L512 305.021314l416.537514-417.049411a54.480416 54.480416 0 0 1 76.711351 0l2.26697 2.26697a54.626672 54.626672 0 0 1 0 76.857607L590.978321 384.145891v-0.146257z"  horiz-adv-x="1024" />

    
    <glyph glyph-name="jichusheshiicon" unicode="&#60449;" d="M1011.350588 896H48.007529A47.887059 47.887059 0 0 1 0 847.992471v-874.917647c0-26.563765 21.985882-47.947294 48.007529-47.947295H1011.952941a48.248471 48.248471 0 0 1 48.00753 47.947295V847.992471c0 28.912941-21.985882 48.007529-48.609883 48.007529z m-47.947294-872.026353h-867.388235V799.984941h867.388235v-776.011294zM264.854588 482.243765h388.035765v-26.563765c0-26.624 21.925647-48.007529 47.947294-48.007529a48.609882 48.609882 0 0 1 48.007529 48.007529V482.183529h74.63153a48.248471 48.248471 0 0 1 47.947294 48.00753 48.609882 48.609882 0 0 1-47.947294 48.007529h-74.63153v16.745412a48.248471 48.248471 0 0 1-48.007529 48.007529 48.609882 48.609882 0 0 1-47.947294-48.007529v-16.745412H264.854588a48.248471 48.248471 0 0 1-48.007529-48.007529 47.525647 47.525647 0 0 1 48.007529-48.00753z m0-272.323765h74.571294v-26.624c0-26.624 21.985882-48.007529 48.00753-48.007529a48.609882 48.609882 0 0 1 48.007529 48.007529v26.624h388.035765a48.248471 48.248471 0 0 1 47.947294 47.947294 48.609882 48.609882 0 0 1-47.947294 48.00753H436.043294v17.347764a48.248471 48.248471 0 0 1-48.007529 48.00753 48.609882 48.609882 0 0 1-48.00753-48.00753v-16.745412H264.854588a48.248471 48.248471 0 0 1-48.007529-48.007529 48.790588 48.790588 0 0 1 48.007529-48.549647z"  horiz-adv-x="1084" />

    
    <glyph glyph-name="zhibanrenyuanicon" unicode="&#60451;" d="M963.660139-128H57.211232a28.328306 28.328306 0 0 0-28.328306 28.328306c0 301.65664 216.10288 546.941088 481.524318 546.941088 265.364553 0 481.467433-245.284449 481.467433-546.941088a28.328306 28.328306 0 0 0-28.328306-28.328306z m-878.063716 56.656612H935.218065c-12.742049 257.173236-198.241258 461.95617-424.810821 461.95617-226.626448 0-411.272394-204.782935-424.92459-461.95617zM510.464128 390.612782A252.906924 252.906924 0 0 0 255.45249 641.016804a254.89787 254.89787 0 0 0 509.852623 0 252.906924 252.906924 0 0 0-254.897869-250.404022z m0 444.378969a196.250312 196.250312 0 0 1-198.298142-193.974947 198.241258 198.241258 0 0 1 396.5394 0 196.250312 196.250312 0 0 1-198.241258 193.974947z m325.718635-661.050691h-226.626448a22.639891 22.639891 0 0 0-22.639891 22.639892v98.86465c0 12.514513 10.125378 22.639891 22.639891 22.639891h169.969836a22.639891 22.639891 0 0 0 0-45.279782h-147.329945v-53.527984H836.239647a22.639891 22.639891 0 0 0 0-45.336667z"  horiz-adv-x="1024" />

    
    <glyph glyph-name="ziyuanguanliicon" unicode="&#60452;" d="M861.786353-81.016471H191.849412c-59.693176 0-115.651765 45.477647-127.518118 103.544471L2.831059 326.415059V326.776471a100.833882 100.833882 0 0 0 21.504 82.462117 96.617412 96.617412 0 0 0 75.89647 35.71953h853.112471c31.382588 0 59.934118-12.890353 78.305882-35.358118 18.672941-22.708706 25.359059-52.163765 19.154824-83.064471L989.244235 22.588235c-11.685647-58.066824-67.704471-103.604706-127.457882-103.604706zM76.498824 341.172706l61.500235-303.706353c4.698353-23.130353 29.876706-43.369412 53.850353-43.369412h669.936941c24.395294 0 49.091765 19.877647 53.790118 43.309177l61.56047 304.007529c1.204706 5.842824 1.505882 14.215529-3.614117 20.48-4.096 5.12-11.324235 7.890824-20.178824 7.890824H100.231529a22.166588 22.166588 0 0 1-17.889882-8.372706 26.021647 26.021647 0 0 1-5.842823-20.239059zM104.207059 409.057882a37.586824 37.586824 0 0 0-37.044706 44.272942l60.837647 337.317647C138.842353 849.558588 196.788706 895.759059 259.975529 895.759059h523.504942c63.247059 0 121.193412-46.140235 131.975529-105.050353l41.502118-227.267765a37.586824 37.586824 0 0 0-73.968942-13.492706l-41.441882 227.267765c-4.216471 23.070118-31.322353 43.369412-58.066823 43.369412h-523.444706c-26.744471 0-53.850353-20.299294-58.066824-43.369412l-60.837647-337.317647a37.586824 37.586824 0 0 0-36.924235-30.840471zM665.840941 69.270588h-300.574117a37.526588 37.526588 0 1 0 0 75.113412h300.574117a37.526588 37.526588 0 1 0 0-75.113412zM741.014588 520.071529H290.213647a37.526588 37.526588 0 1 0 0 75.113412h450.800941a37.526588 37.526588 0 1 0 0-75.113412zM665.840941 670.358588h-300.574117a37.526588 37.526588 0 1 0 0 75.113412h300.574117a37.526588 37.526588 0 1 0 0-75.113412z"  horiz-adv-x="1084" />

    
    <glyph glyph-name="zhengchangicon" unicode="&#60456;" d="M512 384m-512 0a512 512 0 1 1 1024 0 512 512 0 1 1-1024 0ZM215.04 395.093333a73.898667 73.898667 0 0 0 103.936 0.512l180.565333-176.981333a73.642667 73.642667 0 0 0 0.938667-104.106667 73.642667 73.642667 0 0 0-104.106667-0.853333l-180.992 178.346667a72.618667 72.618667 0 0 0-0.426666 103.082666zM848.554667 565.162667a73.301333 73.301333 0 0 1-103.594667 0.085333l-341.077333-339.626667a74.410667 74.410667 0 0 1-1.024-104.448 72.192 72.192 0 0 1 102.912-1.024l342.698666 341.589334a73.045333 73.045333 0 0 1 0 103.424z"  horiz-adv-x="1024" />

    
    <glyph glyph-name="guzhangicon" unicode="&#60457;" d="M512 384m-512 0a512 512 0 1 1 1024 0 512 512 0 1 1-1024 0ZM438.869333 676.608m73.130667 0l0 0q73.130667 0 73.130667-73.130667l0-219.477333q0-73.130667-73.130667-73.130667l0 0q-73.130667 0-73.130667 73.130667l0 219.477333q0 73.130667 73.130667 73.130667ZM512 164.608m-85.333333 0a85.333333 85.333333 0 1 1 170.666666 0 85.333333 85.333333 0 1 1-170.666666 0Z"  horiz-adv-x="1024" />

    
    <glyph glyph-name="shouyeicon" unicode="&#60458;" d="M1015.634944 495.7184L525.855744 883.0464h-2.048l-3.9936 2.1504-3.7888 1.0752L512.031744 887.552h-3.9936l-4.0448-1.024-3.9936-1.9968h-1.9968L8.223744 497.2544a21.1968 21.1968 0 0 1 6.2464-36.864c7.4752-2.7136 15.872-1.3824 22.016 3.4816L512.031744 838.5024l475.5456-376.1152c6.144-4.9152 14.5408-6.2464 22.016-3.5328a21.1968 21.1968 0 1 1 6.2464 36.864h-0.2048zM865.414144 457.472a22.1184 22.1184 0 0 1-22.0672-22.016v-507.2896H666.655744v308.736a22.0672 22.0672 0 0 1-22.1184 22.0672H379.526144a22.0672 22.0672 0 0 1-22.1184-22.016v-308.7872H180.767744V435.456a22.0672 22.0672 0 0 1-44.1856 0v-529.3568a22.016 22.016 0 0 1 22.0672-22.016h220.8768a22.0672 22.0672 0 0 1 22.0672 22.016v308.736h220.8768v-308.736c0-12.1856 9.8816-22.016 22.0672-22.016h220.8768a22.1184 22.1184 0 0 1 22.0672 22.016V435.456a22.016 22.016 0 0 1-22.0672 22.016z"  horiz-adv-x="1043" />

    
    <glyph glyph-name="zengsu" unicode="&#60463;" d="M410.530909 19.409455l60.648727 278.10909a19.642182 19.642182 0 0 1-4.654545 16.989091 22.807273 22.807273 0 0 1-16.942546 7.540364H253.253818l366.08 433.710545-45.614545-286.30109a19.083636 19.083636 0 0 1 5.073454-16.337455 22.341818 22.341818 0 0 1 16.616728-7.168h175.150545L410.530909 19.409455z m425.053091 456.005818a22.202182 22.202182 0 0 1-19.688727 11.496727h-195.072l54.178909 339.037091a20.154182 20.154182 0 0 1-13.032727 21.783273 22.807273 22.807273 0 0 1-25.879273-6.050909L190.789818 314.181818a19.409455 19.409455 0 0 1-2.420363-21.504c3.677091-7.028364 11.264-11.496727 19.595636-11.636363h214.807273L349.090909-56.878545c-1.396364-6.050909 0.279273-12.288 4.468364-17.082182 4.189091-4.747636 10.426182-7.493818 17.035636-7.447273a22.202182 22.202182 0 0 1 17.221818 7.726545L833.163636 453.632a19.549091 19.549091 0 0 1 2.373819 21.736727v0.046546z"  horiz-adv-x="1024" />

    
    <glyph glyph-name="iconjiangbei" unicode="&#60464;" d="M512.086244 667.611019a397.80167 397.80167 0 1 1 395.973538-397.80167A394.328218 394.328218 0 0 1 512.086244 667.611019z m201.094594-358.679631l-77.878452-78.244079 19.378207-110.78484c6.581278-39.122039-12.796929-52.284595-45.337691-32.540762l-97.256658 51.918968-97.256658-51.918968c-32.540762-19.743833-51.918968 0-45.703317 32.540762l19.743833 110.78484-77.878452 78.244079c-25.959484 25.959484-19.743833 52.284595 19.378206 58.500246l103.837936 13.162555 45.33769 97.987911c13.162555 32.540762 39.122039 32.540762 58.500246 0l45.33769-97.987911 110.419214-13.162555c38.756413-12.796929 51.918968-32.540762 19.378206-58.500246z m194.878944 541.127272a20.986963 20.986963 0 0 1 6.215651 13.162555 27.933867 27.933867 0 0 1-25.959484 25.959484h-246.432285a22.632283 22.632283 0 0 1-25.959484-19.378206l-77.878452-143.691228s162.338182-6.581278 259.59484-104.203563zM486.12676 726.111265L408.248308 876.018144A22.851658 22.851658 0 0 1 382.288824 895.761977H142.07219A29.981376 29.981376 0 0 1 109.531429 869.802493c0-6.581278 0-13.162555 6.581277-13.162555L226.53192 628.48898c97.256658 84.825356 259.59484 97.622285 259.59484 97.622285z"  horiz-adv-x="1024" />

    
    <glyph glyph-name="shijianicon" unicode="&#60465;" d="M512 896a512 512 0 1 1 512-512 512 512 0 0 1-512 512z m256-568.512H496.192a41.088 41.088 0 0 0-16.32 3.328 41.92 41.92 0 0 0-25.6 38.4V641.088a41.984 41.984 0 0 0 83.904 0v-229.888H768a41.984 41.984 0 0 0 0-83.712z"  horiz-adv-x="1024" />

    
    <glyph glyph-name="daoyuicon" unicode="&#60466;" d="M362.12032-127.488H90.50432A91.84 91.84 0 0 0 0.00832-34.432V334.016c0 194.56 49.216 302.464 93.12 360.832A517.44 517.44 0 0 0 450.95232 896v-141.312a407.68 407.68 0 0 1-196.8-118.208 352.512 352.512 0 0 1-72.32-224.768h181.248a91.84 91.84 0 0 0 90.56-93.056l-0.896-353.024a91.84 91.84 0 0 0-90.624-93.12z m634.24 0h-271.616a91.84 91.84 0 0 0-90.624 93.056V334.016c0 194.56 49.216 302.464 93.12 360.832A519.36 519.36 0 0 0 1086.02432 896v-141.312a411.52 411.52 0 0 1-197.696-118.208 352.512 352.512 0 0 1-72.256-224.768h181.184A91.84 91.84 0 0 0 1088.00832 318.656l-0.96-353.024a91.776 91.776 0 0 0-90.688-93.12z"  horiz-adv-x="1088" />

    
    <glyph glyph-name="xiala" unicode="&#60467;" d="M1904.13184 880.704a51.2 51.2 0 0 1-72.96 0L969.15584-3.712 87.23584 880.704a51.2 51.2 0 0 1-35.712 14.72 52.224 52.224 0 0 1-51.584-52.864 53.376 53.376 0 0 1 14.4-36.736l915.2-918.464a51.2 51.2 0 0 1 72.96 0L1904.38784 805.824a54.336 54.336 0 0 1 0 74.88z"  horiz-adv-x="1920" />

    
    <glyph glyph-name="xueshuhuoyue" unicode="&#60468;" d="M895.537639 774.165889a30.178482 30.178482 0 0 1-31.96873-31.968731v-736.559552a68.732771 68.732771 0 0 0-63.937462-63.937461H236.342415a84.013824 84.013824 0 0 0-83.1187 63.937461v69.691832a67.581896 67.581896 0 0 0 76.724953 51.149969h537.714049a29.730919 29.730919 0 0 1 31.96873 31.329356V780.559635A114.639868 114.639868 0 0 1 671.117151 895.007691H236.342415A125.317424 125.317424 0 0 1 95.68 780.559635v-800.497014A136.25073 136.25073 0 0 1 217.161176-127.991688h582.470271a126.596173 126.596173 0 0 1 127.874923 120.841801V742.197158a34.270479 34.270479 0 0 1-31.968731 31.968731z m-121.481176-711.623943H249.129907a31.968731 31.968731 0 1 1 0-63.298086h524.926556a31.968731 31.968731 0 1 1 0 63.298086z"  horiz-adv-x="1024" />

    
    <glyph glyph-name="yinyongicon" unicode="&#60469;" d="M365.278549-128H92.894549A92.228267 92.228267 0 0 0 1.417216-35.157333v368.64a587.912533 587.912533 0 0 0 93.525333 361.130666A522.308267 522.308267 0 0 0 454.707883 895.317333v-141.312a413.764267 413.764267 0 0 1-197.973334-118.101333A352.187733 352.187733 0 0 1 184.371883 411.306667h181.589333a92.228267 92.228267 0 0 0 91.477333-92.842667v-0.682667l-1.365333-352.938666A92.091733 92.091733 0 0 0 365.278549-128z m636.928 0h-273.066666a92.091733 92.091733 0 0 0-90.794667 92.842667v368.64a583.202133 583.202133 0 0 0 93.525333 361.130666A522.308267 522.308267 0 0 0 1092.318549 895.317333v-141.312a412.672 412.672 0 0 1-198.656-118.101333A348.16 348.16 0 0 1 820.617216 411.306667h182.272A91.613867 91.613867 0 0 0 1093.683883 318.464v-0.682667l-0.682667-352.938666A92.091733 92.091733 0 0 0 1002.206549-128z"  horiz-adv-x="1093" />

    
    <glyph glyph-name="zuozheicon" unicode="&#60470;" d="M965.601882 828.175059a196.547765 196.547765 0 0 1-268.468706 7.107765 1.807059 1.807059 0 0 0 0 0.421647 142.034824 142.034824 0 0 1-132.517647 57.524705c-66.258824-18.432-90.352941-114.928941-111.013647-200.101647a326.776471 326.776471 0 0 0-30.117647-92.28047 46.320941 46.320941 0 0 0-50.176-12.047059 14.275765 14.275765 0 0 0-6.445176 18.552471 25.901176 25.901176 0 0 1-50.657883 11.023058 65.415529 65.415529 0 0 1 32.225883-74.631529 82.883765 82.883765 0 0 1 39.574588-9.637647c1.867294 0 3.734588 0.421647 5.601882 0.542118L325.722353 467.365647a86.558118 86.558118 0 0 1 9.216-102.4 37.827765 37.827765 0 0 1-9.697882-7.168 292.261647 292.261647 0 0 0-166.309647-85.293176A38.550588 38.550588 0 0 1 121.404235 233.411765a597.775059 597.775059 0 0 0-112.941176-293.225412 41.743059 41.743059 0 0 1 6.023529-54.512941 42.646588 42.646588 0 0 1 55.055059-6.02353 609.822118 609.822118 0 0 0 295.936 111.856942 38.671059 38.671059 0 0 1 39.333647 36.562823 288.647529 288.647529 0 0 0 86.016 164.743529 36.141176 36.141176 0 0 1 7.228235 9.637648 88.847059 88.847059 0 0 1 103.604706-9.155765l363.941647 360.628706a192.391529 192.391529 0 0 1 0 274.251294zM294.761412 89.871059a53.007059 53.007059 0 0 0-58.187294-10.842353l-163.056942-136.131765L210.552471 103.905882a51.561412 51.561412 0 0 0 9.818353 59.632942 53.067294 53.067294 0 0 0 74.390588 0 51.862588 51.862588 0 0 0 0-73.667765z m196.246588 542.117647c4.216471 14.938353 8.312471 31.322353 12.709647 49.152 15.781647 64.391529 37.466353 152.455529 74.631529 162.635294a105.953882 105.953882 0 0 0 81.79953-44.333176z"  horiz-adv-x="1024" />

    
    <glyph glyph-name="PDF" unicode="&#60471;" d="M904.0896 652.8h-227.84V896l227.84-243.2m-263.4752-29.696V896H116.0704v-477.696h786.7904v204.8h-262.2464M278.3744 209.92a54.3232 54.3232 0 0 1-18.944 6.656 106.3936 106.3936 0 0 1-22.3744 2.048H184.576v-98.304H237.056a156.5696 156.5696 0 0 1 22.3744 2.048 46.08 46.08 0 0 1 18.944 7.168 36.5056 36.5056 0 0 1 13.1072 14.848 65.8432 65.8432 0 0 1 0 50.176 38.0928 38.0928 0 0 1-13.1072 15.36M0 349.696V-128h1024v477.696H0m356.3008-219.136a93.5424 93.5424 0 0 0-18.5344-33.28 95.1808 95.1808 0 0 0-32.9216-24.064 126.6688 126.6688 0 0 0-48.9984-8.704H184.832v-117.248H117.2992v327.168h138.5472a126.6688 126.6688 0 0 0 48.9984-8.704 94.1056 94.1056 0 0 0 32.9216-23.552 91.4944 91.4944 0 0 0 18.5344-33.792 131.3792 131.3792 0 0 0 5.7856-38.912 133.888 133.888 0 0 0-5.7856-38.912m298.4448-83.968a152.4224 152.4224 0 0 0-26.0096-52.224 124.928 124.928 0 0 0-43.4688-34.816 142.2848 142.2848 0 0 0-61.44-12.288H391.3216v327.168h132.5056a150.528 150.528 0 0 0 55.2448-9.728 121.344 121.344 0 0 0 44.3392-30.72 141.1072 141.1072 0 0 0 29.2352-50.176 216.6272 216.6272 0 0 0 10.5472-71.168 244.0704 244.0704 0 0 0-8.6016-66.048m263.7312 167.424h-148.48v-75.776h128.6144v-55.808h-128.6144v-135.168h-67.5328v327.168h215.9104v-60.416m-342.016-29.184a68.9664 68.9664 0 0 1-27.3408 21.504 101.5808 101.5808 0 0 1-41.9328 7.68H458.752v-206.336h60.2112a77.312 77.312 0 0 1 28.416 5.12 56.32 56.32 0 0 1 24.5248 16.896 85.0432 85.0432 0 0 1 17.2032 30.208 143.36 143.36 0 0 1 6.4512 46.08 201.7792 201.7792 0 0 1-4.5056 44.544 94.9248 94.9248 0 0 1-14.848 34.304z"  horiz-adv-x="1024" />

    
    <glyph glyph-name="xiazaiicon" unicode="&#60472;" d="M54.228028-128h975.811765a55.296 55.296 0 0 1 54.211765 56.621176v284.912942h-108.42353v-227.689412H108.439793v227.689412H0.016264v-284.912942a55.296 55.296 0 0 1 54.211764-56.621176zM232.524499 538.202353a52.826353 52.826353 0 0 0 77.101176 0L487.922146 350.870588V839.378824a54.211765 54.211765 0 1 0 108.423529 0v-488.508236l178.898824 187.331765a52.103529 52.103529 0 0 0 76.498823 0 59.392 59.392 0 0 0 0-80.715294L580.684499 173.176471a52.103529 52.103529 0 0 0-76.498824 0l-271.058823 284.310588a58.789647 58.789647 0 0 0-0.602353 80.715294z"  horiz-adv-x="1084" />

    
    <glyph glyph-name="iconsuanfayuanli" unicode="&#60473;" d="M360.983857 308.912822H73.419391a70.995144 70.995144 0 0 1-52.051729-22.185983 68.861877 68.861877 0 0 1-21.332675-52.051728v-289.271081a72.87242 72.87242 0 0 1 73.384404-73.384404h287.564466a73.469735 73.469735 0 0 1 52.905036 21.332676 70.141837 70.141837 0 0 1 21.332675 52.051728V234.675111a68.861877 68.861877 0 0 1-21.332675 52.051728 74.323042 74.323042 0 0 1-52.905036 22.185983z m0 527.34374H73.419391a73.555065 73.555065 0 0 1-52.051729-21.332675 70.739152 70.739152 0 0 1-21.332675-52.905036v-287.564467a72.104443 72.104443 0 0 1 21.332675-52.905035 70.995144 70.995144 0 0 1 52.051729-22.185983h287.564466a74.323042 74.323042 0 0 1 52.905036 22.185983 72.104443 72.104443 0 0 1 21.332675 52.905035V762.018851a70.739152 70.739152 0 0 1-21.332675 52.905036 76.797632 76.797632 0 0 1-52.905036 21.332675z m527.343741-527.34374H600.763131a72.87242 72.87242 0 0 1-52.905036-22.185983 69.629853 69.629853 0 0 1-22.185982-52.051728v-289.271081a70.995144 70.995144 0 0 1 22.185982-52.051728 72.104443 72.104443 0 0 1 52.905036-21.332676h287.564467a70.141837 70.141837 0 0 1 52.051728 21.332676 73.555065 73.555065 0 0 1 21.332676 52.051728V234.675111a72.104443 72.104443 0 0 1-21.332676 52.051728 70.995144 70.995144 0 0 1-52.051728 22.185983z m113.489834 362.655485L798.73036 873.802071A69.117869 69.117869 0 0 1 746.678632 895.988054a70.995144 70.995144 0 0 1-52.051729-22.185983L490.686525 670.715a76.797632 76.797632 0 0 1-22.185983-52.905036 70.141837 70.141837 0 0 1 21.332676-52.051728l203.087071-203.087072a74.15238 74.15238 0 0 1 105.810071 0l203.087072 203.087072a70.995144 70.995144 0 0 1 22.185982 52.905035 77.992262 77.992262 0 0 1-22.185982 52.905036z"  horiz-adv-x="1024" />

    
    <glyph glyph-name="iconlunwen" unicode="&#60474;" d="M804.061433 629.453303l118.352078 1.336233L671.710721 888.873423 673.619626 719.108184a107.789474 107.789474 0 0 1 130.441807-89.654881z m-54.085627-27.360965a106.38961 106.38961 0 0 0-103.717144 117.206736L644.349757 895.618219 195.757201 890.655067A99.644815 99.644815 0 0 1 93.948962 790.373951l8.908221-809.693655a108.171255 108.171255 0 0 1 104.353445-107.853104l619.757659 6.872056a109.316597 109.316597 0 0 1 103.080842 110.143789l-6.999316 614.158206zM231.390085 459.433543l560.581619 6.363015a24.370347 24.370347 0 0 0 0.636302-47.913503l-560.581619-6.363015a24.370347 24.370347 0 0 0-0.636302 47.913503z m1.908905-156.91195l560.581619 6.363015a24.370347 24.370347 0 0 0 0.636301-47.913503l-560.581619-6.363015a24.370347 24.370347 0 0 0-0.636301 47.658983z m565.035729-192.417573l-560.581619-6.363015a24.370347 24.370347 0 0 0-0.636301 47.913503l560.581619 6.363015a24.370347 24.370347 0 0 0 0.636301-47.913503z"  horiz-adv-x="1024" />

    
    <glyph glyph-name="top" unicode="&#60625;" d="M487.424 896l460.476632-522.078316H26.947368zM242.526316 303.157895h485.052631v-107.789474H242.526316zM242.526316 141.473684h485.052631v-107.789473H242.526316zM242.526316-20.210526h485.052631v-107.789474H242.526316z"  horiz-adv-x="1024" />

    
    <glyph glyph-name="shebaoshuju" unicode="&#60627;" d="M810.139152-113.819152h-112.484849v72.021334h112.484849c76.055273 0 137.929697 58.678303 137.929696 130.792727V678.105212c0 72.114424-61.874424 130.761697-137.929696 130.761697H213.829818c-76.024242 0-137.898667-58.647273-137.898666-130.761697v-589.110303c0-72.114424 61.874424-130.792727 137.898666-130.792727h368.546909v-72.021334H213.829818C95.883636-113.819152 0-22.838303 0 88.994909V678.105212C0 789.938424 95.914667 880.919273 213.798788 880.919273h596.340364C928.054303 880.919273 1024 789.938424 1024 678.105212v-589.110303c0-111.833212-95.945697-202.814061-213.860848-202.814061M729.553455-113.819152H651.636364V7.292121c0 110.685091 98.428121 200.704 219.415272 200.704H992.969697v-71.276606h-121.918061c-78.041212 0-141.498182-58.057697-141.498181-129.427394v-121.111273zM676.212364 588.334545H285.72703C264.998788 588.334545 248.242424 601.460364 248.242424 617.596121s16.756364 29.261576 37.484606 29.261576h390.485334c20.728242 0 37.484606-13.094788 37.484606-29.261576 0-16.135758-16.756364-29.261576-37.484606-29.261576M612.848485 383.534545h-0.03103l-325.818182 0.310303c-21.441939 0.062061-38.787879 13.094788-38.756849 29.168485 0.03103 16.042667 17.37697 29.044364 38.787879 29.044364h0.03103l325.818182-0.310303c21.441939-0.03103 38.787879-13.063758 38.756849-29.137455-0.03103-16.073697-17.37697-29.075394-38.787879-29.075394M459.869091 207.996121H284.858182c-20.231758 0-36.615758 13.125818-36.615758 29.261576s16.384 29.261576 36.615758 29.261576h175.010909c20.231758 0 36.615758-13.125818 36.615757-29.261576s-16.384-29.261576-36.615757-29.261576"  horiz-adv-x="1024" />

    
    <glyph glyph-name="yanglaofuwu" unicode="&#60628;" d="M441.178839 801.626839a94.406194 94.406194 0 1 0-188.746323 0 94.406194 94.406194 0 0 0 188.779355 0M820.356129 41.356387c-12.188903 0-24.014452 6.474323-30.257548 17.870452l-168.167226 309.743484H352.685419a45.287226 45.287226 0 0 0-45.188129 40.827871L266.735484 803.54271a26.822194 26.822194 0 0 0 53.281032 5.549419l40.035097-386.543484h266.405161c16.879484 0 32.371613-9.216 40.431484-24.047484l161.164387-296.893935 118.090323 62.992516a26.789161 26.789161 0 1 0 25.203613-47.236129l-134.936775-72.010323a34.023226 34.023226 0 0 0-16.053677-3.996903zM619.024516 501.396645H322.626065a26.756129 26.756129 0 1 0 0 53.578323h296.332387a26.756129 26.756129 0 1 0 0-53.578323M354.766452-121.723871C168.23329-121.723871 16.516129 29.99329 16.516129 216.493419 16.516129 352.718452 97.57729 475.069935 223.099871 528.119742a26.789161 26.789161 0 1 0 20.843355-49.317161 284.275613 284.275613 0 0 1-173.848774-262.309162c0-156.96929 127.70271-284.672 284.672-284.672 134.804645 0 252.135226 95.760516 278.924387 227.658323a26.822194 26.822194 0 0 0 52.52129-10.636387c-31.843097-156.771097-171.272258-270.567226-331.445677-270.567226"  horiz-adv-x="1024" />

    
    <glyph glyph-name="jibenqingkuang" unicode="&#60629;" d="M922.561939-67.894303H277.907394a23.210667 23.210667 0 0 0-22.962424 23.427879c0 12.939636 10.302061 23.427879 22.962424 23.427879h644.654545c13.498182 0 24.451879 11.201939 24.451879 24.917333V762.166303a24.731152 24.731152 0 0 1-24.451879 24.917333H277.907394a24.731152 24.731152 0 0 1-24.451879-24.917333V112.795152a23.210667 23.210667 0 0 0-22.962424-23.427879 23.210667 23.210667 0 0 0-22.962424 23.427879V762.166303C207.499636 801.729939 239.088485 833.939394 277.876364 833.939394h644.654545C961.349818 833.939394 992.969697 801.729939 992.969697 762.166303V3.878788c0-39.563636-31.588848-71.773091-70.407758-71.773091M789.348848-67.894303H133.678545A71.68 71.68 0 0 0 62.060606 3.630545V675.157333a71.68 71.68 0 0 0 71.617939 71.493819h69.383758v-46.669576H133.678545a24.855273 24.855273 0 0 1-24.886303-24.824243v-671.526788c0-13.653333 11.170909-24.824242 24.886303-24.824242h655.670303v-46.700606zM379.562667 673.047273c-20.169697 0-36.584727-15.142788-36.584728-33.792v-76.086303c0-18.618182 16.446061-33.792 36.584728-33.792h121.328485c20.169697 0 36.615758 15.142788 36.615757 33.792V639.255273c0 18.618182-16.446061 33.792-36.615757 33.792h-121.328485z m121.328485-188.198788h-121.328485c-46.731636 0-84.774788 35.126303-84.774788 78.320485V639.255273c0 43.194182 38.043152 78.320485 84.774788 78.320485h121.328485c46.762667 0 84.805818-35.126303 84.805818-78.320485v-76.086303c0-43.194182-38.043152-78.320485-84.774788-78.320485zM823.916606 659.393939h-127.348364c-13.032727 0-23.58303 13.032727-23.58303 29.106425 0 16.042667 10.550303 29.075394 23.58303 29.075394h127.348364c13.032727 0 23.58303-13.032727 23.58303-29.106425 0-16.042667-10.550303-29.075394-23.58303-29.075394M823.916606 572.105697h-127.348364c-13.032727 0-23.58303 13.032727-23.58303 29.106424s10.550303 29.106424 23.58303 29.106424h127.348364c13.032727 0 23.58303-13.032727 23.58303-29.106424s-10.550303-29.106424-23.58303-29.106424M823.916606 484.848485h-127.348364c-13.032727 0-23.58303 13.032727-23.58303 29.106424 0 16.042667 10.550303 29.075394 23.58303 29.075394h127.348364c13.032727 0 23.58303-13.032727 23.58303-29.106424 0-16.042667-10.550303-29.075394-23.58303-29.075394M823.699394 339.378424H318.588121c-13.156848 0-23.800242 13.032727-23.800242 29.106424s10.643394 29.106424 23.800242 29.106425h505.111273c13.187879 0 23.800242-13.032727 23.800242-29.106425s-10.612364-29.106424-23.800242-29.106424M823.699394 223.014788H318.588121c-13.156848 0-23.800242 13.032727-23.800242 29.106424 0 16.042667 10.643394 29.106424 23.800242 29.106424h505.111273c13.187879 0 23.800242-13.032727 23.800242-29.106424 0-16.042667-10.612364-29.106424-23.800242-29.106424M823.699394 106.651152H318.588121c-13.156848 0-23.800242 13.032727-23.800242 29.106424 0 16.042667 10.643394 29.106424 23.800242 29.106424h505.111273c13.187879 0 23.800242-13.032727 23.800242-29.106424 0-16.042667-10.612364-29.106424-23.800242-29.106424"  horiz-adv-x="1024" />

    
    <glyph glyph-name="yiliaojiankang" unicode="&#60630;" d="M379.035152 8.781576c-67.708121 0-117.046303 8.378182-121.76291 9.216a25.010424 25.010424 0 0 0 8.688485 49.21406c2.513455-0.434424 257.489455-43.442424 402.183758 73.603879 62.557091 50.579394 96.069818 125.114182 99.669333 221.432243 4.592485 268.629333 57.002667 393.929697 101.31394 452.080484-112.888242-2.978909-345.367273-21.504-511.503516-117.977212-335.344485-199.773091-210.168242-596.433455-208.864969-600.436363a24.948364 24.948364 0 1 0-47.476364-15.546182c-1.489455 4.344242-138.550303 438.923636 230.989576 659.083636C571.298909 878.219636 923.151515 864.969697 938.046061 864.349091A24.948364 24.948364 0 1 0 943.631515 815.321212c-0.372364-0.186182-118.846061-47.104-125.858909-454.407757-4.12703-111.988364-43.938909-198.966303-118.318545-259.072-94.828606-76.582788-225.621333-93.028848-320.418909-93.028849M87.102061-119.001212a25.041455 25.041455 0 0 0-24.141576 31.619879C193.442909 388.375273 495.64703 544.209455 508.400485 550.601697a25.010424 25.010424 0 0 0 22.434909-44.683636c-2.947879-1.489455-295.439515-153.56897-419.653818-606.518303a25.041455 25.041455 0 0 0-24.079515-18.40097"  horiz-adv-x="1024" />

    
    <glyph glyph-name="anmingchengpaixu" unicode="&#60635;" d="M765.754277-38.96349a35.614604 35.614604 0 0 0-35.614604 35.614604V815.787008A35.525568 35.525568 0 0 0 784.095798 846.326531l178.07302-106.843812a35.614604 35.614604 0 1 0-36.683042-61.079046L801.368881 752.882714V-3.348886a35.614604 35.614604 0 0 0-35.614604-35.614604M623.29586 744.5578H124.691403a35.614604 35.614604 0 1 0 0 71.229208H623.29586a35.614604 35.614604 0 1 0 0-71.229208M623.29586 495.255571H124.691403a35.614604 35.614604 0 1 0 0 71.229208H623.29586A35.614604 35.614604 0 1 0 623.29586 495.255571M623.29586 245.953343H124.691403a35.614604 35.614604 0 1 0 0 71.229208H623.29586a35.614604 35.614604 0 1 0 0-71.229208M623.29586-3.348886H124.691403a35.614604 35.614604 0 1 0 0 71.229208H623.29586a35.614604 35.614604 0 1 0 0-71.229208"  horiz-adv-x="1024" />

    
    <glyph glyph-name="anwanchengdupaixu" unicode="&#60636;" d="M676.737113-21.147826H35.62407A35.617391 35.617391 0 0 0 35.62407 50.086957h641.113043a35.617391 35.617391 0 0 0 0-71.234783M795.031374-38.956522c-21.058783 0-38.15513 15.938783-38.155131 35.617392V815.86087c0 12.822261 7.390609 24.665043 19.366957 30.98713a40.514783 40.514783 0 0 0 38.466783-0.445217l190.775652-106.852174c18.075826-10.150957 23.952696-32.01113 13.044869-48.88487-10.818783-16.829217-34.281739-22.26087-52.357565-12.198956l-132.986435 74.484869V-3.33913c0-19.678609-17.096348-35.617391-38.15513-35.617392M365.530157 406.26087L238.019896 493.167304a35.929043 35.929043 0 0 0-9.616696 49.152 34.148174 34.148174 0 0 0 48.083478 9.794783l80.228174-54.761739 118.427826 121.143652a34.103652 34.103652 0 0 0 48.973913 0 35.973565 35.973565 0 0 0 0-50.086957L365.530157 406.26087zM442.196591 840.614957C301.463374 876.855652 148.976417 820.313043 65.631722 701.261913c-102.355478-146.16487-79.293217-330.841043 29.740521-448.467478a33.03513 33.03513 0 0 1 53.871305 8.904348l2.359652 4.897391a33.658435 33.658435 0 0 1-6.366609 36.908522 285.117217 285.117217 0 0 0-18.565565 360.581565C193.097461 755.756522 312.059548 799.343304 422.072765 772.229565a285.384348 285.384348 0 0 0 192.422957-397.668174c-54.984348-117.982609-180.98087-180.535652-303.638261-160.857043a32.322783 32.322783 0 0 1-34.949565-17.586087l-3.294609-7.123478a31.833043 31.833043 0 0 1 23.373913-44.78887c154.401391-26.445913 313.878261 51.645217 383.065043 200.258783 92.338087 198.210783-14.06887 438.850783-236.855652 496.150261"  horiz-adv-x="1024" />

    
    <glyph glyph-name="morenpaixu" unicode="&#60637;" d="M667.91513 696.765217l195.806609-190.107826a33.569391 33.569391 0 0 1 23.552-9.438608 33.836522 33.836522 0 0 1 23.552 9.438608 31.610435 31.610435 0 0 1 0 45.545739l-252.616348 245.314783a33.925565 33.925565 0 0 1-46.925913 0 31.610435 31.610435 0 0 1-9.527652-19.72313c-0.178087-1.024-0.178087-2.092522-0.178087-3.116522v-825.878261c0-17.808696 14.914783-32.278261 33.257739-32.278261a32.812522 32.812522 0 0 1 33.257739 32.322783v747.965217h-0.178087zM368.951652-73.193739l-251.725913 244.424348a31.610435 31.610435 0 0 0 0 45.590261 33.925565 33.925565 0 0 0 46.925913 0l195.628522-190.107827v747.965218c0 17.808696 14.914783 32.278261 33.257739 32.278261s33.257739-14.514087 33.257739-32.322783v-825.789217c0-17.808696-14.914783-32.322783-33.257739-32.322783a33.836522 33.836522 0 0 0-24.086261 10.284522z"  horiz-adv-x="1024" />

    
    <glyph glyph-name="anmingchengpaixu1" unicode="&#60638;" d="M750.502957 851.478261c-21.058783 0-38.15513-15.938783-38.155131-35.617391v-819.2c0-12.822261 7.390609-24.665043 19.366957-30.987131 11.976348-6.322087 26.668522-6.144 38.466782 0.445218l190.775652 106.852173c18.075826 10.150957 23.952696 32.01113 13.04487 48.88487-10.818783 16.829217-34.281739 22.26087-52.357565 12.198957l-132.986435-74.48487V815.86087c0 19.678609-17.096348 35.617391-38.15513 35.617391M578.782609 744.626087H80.13913a35.617391 35.617391 0 1 0 0 71.234783H578.782609a35.617391 35.617391 0 1 0 0-71.234783M578.782609 495.304348H80.13913a35.617391 35.617391 0 1 0 0 71.234782H578.782609A35.617391 35.617391 0 1 0 578.782609 495.304348M578.782609 245.982609H80.13913a35.617391 35.617391 0 1 0 0 71.234782H578.782609a35.617391 35.617391 0 1 0 0-71.234782M578.782609-3.33913H80.13913a35.617391 35.617391 0 1 0 0 71.234782H578.782609a35.617391 35.617391 0 1 0 0-71.234782"  horiz-adv-x="1024" />

    
    </font>
</defs>
</svg>
