<?xml version="1.0" encoding="UTF-8"?>
<svg width="231px" height="36px" viewBox="0 0 231 36" version="1.1" xmlns="http://www.w3.org/2000/svg" xmlns:xlink="http://www.w3.org/1999/xlink">
    <!-- Generator: Sketch 52.5 (67469) - http://www.bohemiancoding.com/sketch -->
    <title>Path 7</title>
    <desc>Created with Sketch.</desc>
    <defs>
        <polyline id="path-1" points="71.796875 43.7607422 76.1872736 36.3105469 80.4538587 36.3105469 88.958566 25.0136719 95.0012346 34.387207 99.8584244 38.9169922 107.12215 31.421875 112.827534 36.3105469 116.892032 41.6787109 116.892032 36.3105469 123.639157 40.5439453 131.904776 33.2509766 135.548024 40.5439453 138.508164 23.1591797 147.234881 41.6787109 151.164181 34.387207 158.800771 38.9169922 167.244283 31.421875 178.198221 40.5439453 183.078181 25.0136719 187.988027 48.6015625 190.04447 33.2509766 196.087138 38.9169922 198.193391 36.3105469 202.091382 38.9169922 205.521159 34.387207 208.854161 40.5439453 211.69618 27.1992188 223.310456 40.5439453 231.919053 35.8803711 236.104519 37.8378906 239.066081 34.387207 246.711209 41.6787109 252.573139 35.8803711 256.536594 37.8378906 258.335448 35.8803711 263.121481 43.7607422 269.218229 25.0136719 273.916026 37.8378906 279.945887 34.387207 285.846241 37.8378906 287.827257 34.387207 292.796875 35.8803711"></polyline>
        <filter x="-4.2%" y="-19.7%" width="108.4%" height="170.7%" filterUnits="objectBoundingBox" id="filter-2">
            <feMorphology radius="1" operator="dilate" in="SourceAlpha" result="shadowSpreadOuter1"></feMorphology>
            <feOffset dx="0" dy="4" in="shadowSpreadOuter1" result="shadowOffsetOuter1"></feOffset>
            <feMorphology radius="1" operator="erode" in="SourceAlpha" result="shadowInner"></feMorphology>
            <feOffset dx="0" dy="4" in="shadowInner" result="shadowInner"></feOffset>
            <feComposite in="shadowOffsetOuter1" in2="shadowInner" operator="out" result="shadowOffsetOuter1"></feComposite>
            <feGaussianBlur stdDeviation="2" in="shadowOffsetOuter1" result="shadowBlurOuter1"></feGaussianBlur>
            <feColorMatrix values="0 0 0 0 0.458823529   0 0 0 0 0.909803922   0 0 0 0 1  0 0 0 0.528957201 0" type="matrix" in="shadowBlurOuter1"></feColorMatrix>
        </filter>
    </defs>
    <g id="Page-1" stroke="none" stroke-width="1" fill="none" fill-rule="evenodd" stroke-linecap="round" stroke-linejoin="round">
        <g id="驾驶舱-111" transform="translate(-212.000000, -304.000000)">
            <g id="分组-19" transform="translate(145.000000, 215.000000)">
                <g id="分组-10" transform="translate(0.000000, 67.000000)">
                    <g id="分组-3">
                        <g id="Path-7">
                            <use fill="black" fill-opacity="1" filter="url(#filter-2)" xlink:href="#path-1"></use>
                            <use stroke="#75E8FF" stroke-width="2" xlink:href="#path-1"></use>
                        </g>
                    </g>
                </g>
            </g>
        </g>
    </g>
</svg>